<?xml version="1.0" encoding="UTF-8"?>
<svg version="1.1" xmlns="http://www.w3.org/2000/svg" width="500" height="500">
<path d="M0 0 C2.13671875 0.40625 2.13671875 0.40625 4 1 C5.75616339 13.3654386 4.27018706 25.5175449 3.125 37.875 C2.93526836 40.02075134 2.74645938 42.16658448 2.55859375 44.3125 C1.07989326 60.97405762 1.07989326 60.97405762 0 68 C0.61294922 67.86424561 1.22589844 67.72849121 1.85742188 67.58862305 C17.82702102 64.06055996 33.77317175 60.75926912 49.9375 58.25 C50.82139404 58.10997559 51.70528809 57.96995117 52.6159668 57.82568359 C54.73777658 57.50614528 56.86852852 57.24700369 59 57 C61.63629992 59.63629992 60.18565848 67.27861466 60.1875 70.8125 C60.19974609 71.97587891 60.21199219 73.13925781 60.22460938 74.33789062 C60.24936412 89.6280734 58.24071401 104.72581834 56.14794922 119.84692383 C52.20441381 148.34592166 49.24550098 176.95013964 46.24780273 205.56054688 C44.60130738 221.2625602 42.95045601 236.9645323 41.10670853 252.64484215 C40.93854898 254.08120775 40.77283804 255.51786244 40.60975266 256.954813 C40.38615757 258.91695077 40.15160787 260.87783098 39.91650391 262.83862305 C39.78724518 263.93804733 39.65798645 265.03747162 39.52481079 266.17021179 C39.02418114 268.86961489 38.5112625 270.71969866 37 273 C32.17502821 275.55974614 27.80242159 276.55176925 22.36328125 277.28125 C21.65082748 277.37978271 20.93837372 277.47831543 20.20433044 277.57983398 C17.90817319 277.89552344 15.61044837 278.1976541 13.3125 278.5 C11.71306368 278.71828677 10.11378 278.9376948 8.51464844 279.15820312 C5.3880601 279.5886312 2.2609749 280.01503557 -0.86669922 280.4375 C-5.66677229 281.08786133 -10.46032613 281.77703036 -15.25 282.5 C-15.98831055 282.61085938 -16.72662109 282.72171875 -17.48730469 282.8359375 C-25.82768901 284.1033661 -34.15142734 285.47720403 -42.47796631 286.83200073 C-50.60014741 288.15223075 -58.72523507 289.42354283 -66.875 290.5625 C-67.68275879 290.67883789 -68.49051758 290.79517578 -69.32275391 290.91503906 C-72.94016096 291.43580795 -76.55680004 291.94431956 -80.18310547 292.39990234 C-83.56337813 292.82482017 -86.93742581 293.28578599 -90.3125 293.75 C-91.35712402 293.87060791 -92.40174805 293.99121582 -93.47802734 294.11547852 C-100.91162784 295.18078039 -104.89307588 297.56074292 -110 303 C-110.8559375 303.8353125 -111.711875 304.670625 -112.59375 305.53125 C-113.78484375 306.75328125 -113.78484375 306.75328125 -115 308 C-116.05073191 309.05343302 -117.10291045 310.10542439 -118.15625 311.15625 C-118.70410156 311.70410156 -119.25195312 312.25195312 -119.81640625 312.81640625 C-124.84375 317.84375 -124.84375 317.84375 -126.45703125 319.44921875 C-127.46497683 320.46226785 -128.46292768 321.48538779 -129.44921875 322.51953125 C-130.59734672 323.71479643 -131.79460357 324.86251323 -133 326 C-133.66 326 -134.32 326 -135 326 C-135.66 327.32 -136.32 328.64 -137 330 C-137.66 330 -138.32 330 -139 330 C-139.66 331.32 -140.32 332.64 -141 334 C-141.66 334 -142.32 334 -143 334 C-143.66 335.32 -144.32 336.64 -145 338 C-145.66 338 -146.32 338 -147 338 C-147.66 339.32 -148.32 340.64 -149 342 C-149.66 342 -150.32 342 -151 342 C-151.66 343.32 -152.32 344.64 -153 346 C-153.66 346 -154.32 346 -155 346 C-155.66 347.32 -156.32 348.64 -157 350 C-157.66 350 -158.32 350 -159 350 C-159.66 351.32 -160.32 352.64 -161 354 C-161.66 354 -162.32 354 -163 354 C-163.66 355.32 -164.32 356.64 -165 358 C-165.66 358 -166.32 358 -167 358 C-167.66 359.32 -168.32 360.64 -169 362 C-169.66 362 -170.32 362 -171 362 C-171.66 363.32 -172.32 364.64 -173 366 C-173.66 366 -174.32 366 -175 366 C-175.66 367.32 -176.32 368.64 -177 370 C-177.66 370 -178.32 370 -179 370 C-179.66 371.32 -180.32 372.64 -181 374 C-181.66 374 -182.32 374 -183 374 C-183.66 375.32 -184.32 376.64 -185 378 C-185.66 378 -186.32 378 -187 378 C-187.33 378.99 -187.66 379.98 -188 381 C-192.75 382.125 -192.75 382.125 -195 381 C-195.31393715 370.01452538 -194.46315641 359.26408738 -193.40087891 348.34130859 C-193.12553868 345.50554795 -192.86081449 342.66894568 -192.59765625 339.83203125 C-189.97271223 311.94542446 -189.97271223 311.94542446 -188 308 C-189.8253125 308.433125 -189.8253125 308.433125 -191.6875 308.875 C-201.19631053 310.93892787 -210.38969276 312.18923489 -220.125 312.25 C-220.95499512 312.25918457 -221.78499023 312.26836914 -222.64013672 312.27783203 C-223.81213623 312.27178955 -223.81213623 312.27178955 -225.0078125 312.265625 C-225.70535645 312.26336914 -226.40290039 312.26111328 -227.12158203 312.25878906 C-229 312 -229 312 -232 310 C-232.6840882 307.59163986 -233.17539646 305.35974041 -233.57421875 302.90234375 C-233.69850754 302.18731186 -233.82279633 301.47227997 -233.95085144 300.73558044 C-235.11836562 293.78291822 -235.90059734 286.79644797 -236.5925293 279.78225708 C-236.98809901 275.79050426 -237.41018562 271.80154873 -237.83203125 267.8125 C-237.9222757 266.95745377 -238.01252014 266.10240753 -238.10549927 265.22145081 C-239.28612802 254.15459637 -240.64064092 243.10858643 -242 232.0625 C-242.130578 231.00098724 -242.26115601 229.93947449 -242.39569092 228.84579468 C-243.98990369 215.91527263 -245.63285503 202.99327926 -247.3840332 190.08300781 C-249.05032993 177.75566418 -250.63058084 165.41738809 -252.20632935 153.07818604 C-252.52416874 150.59074551 -252.84273805 148.10339812 -253.16207886 145.6161499 C-253.61400255 142.09461801 -254.06321869 138.57275062 -254.51171875 135.05078125 C-254.71459503 133.47429054 -254.71459503 133.47429054 -254.92156982 131.86595154 C-256.09986056 122.56792159 -257.14440096 113.3178631 -257.125 103.9375 C-257.12757813 102.66777344 -257.13015625 101.39804688 -257.1328125 100.08984375 C-257 97 -257 97 -256 95 C-246.56015429 91.24477213 -236.34014654 89.38722032 -226.4375 87.25 C-224.87210842 86.9078778 -223.30684395 86.56517356 -221.74169922 86.22192383 C-218.48403318 85.5079089 -215.22583534 84.79639406 -211.96728516 84.08642578 C-207.02084806 83.00682936 -202.07828908 81.91022772 -197.13671875 80.80859375 C-195.9338044 80.54047379 -195.9338044 80.54047379 -194.70658875 80.26693726 C-192.34602573 79.74060797 -189.98551215 79.21405735 -187.625 78.6875 C-179.63845162 76.90649263 -171.65131166 75.13229247 -163.6484375 73.42578125 C-157.75335759 72.16842729 -151.874261 70.85090572 -146 69.5 C-135.839589 67.16340697 -125.65570108 64.95060964 -115.44189453 62.85986328 C-110.09216331 61.76427574 -104.74790826 60.64423573 -99.40551758 59.51342773 C-97.18033688 59.04687594 -94.95342372 58.58851056 -92.72485352 58.13842773 C-76.09698947 54.77123937 -62.29537225 50.60087377 -48.9375 39.8125 C-47.93589844 39.01457031 -46.93429687 38.21664062 -45.90234375 37.39453125 C-44.37995247 36.13850722 -42.86007949 34.87891414 -41.36767578 33.58740234 C-37.19730478 30 -37.19730478 30 -35 30 C-34.67 29.01 -34.34 28.02 -34 27 C-32.35766602 25.46606445 -32.35766602 25.46606445 -30.25390625 23.86328125 C-29.49916016 23.28642578 -28.74441406 22.70957031 -27.96679688 22.11523438 C-27.17337891 21.52033203 -26.37996094 20.92542969 -25.5625 20.3125 C-24.77294922 19.70599609 -23.98339844 19.09949219 -23.16992188 18.47460938 C-17.26585349 14 -17.26585349 14 -15 14 C-14.67 13.01 -14.34 12.02 -14 11 C-12.109375 9.31640625 -12.109375 9.31640625 -9.75 7.5625 C-7.12821754 5.60551183 -4.63590987 3.67636433 -2.1875 1.5 C-1.1046875 0.7575 -1.1046875 0.7575 0 0 Z M-30 60 C-30 60.66 -30 61.32 -30 62 C-30.680625 62.226875 -31.36125 62.45375 -32.0625 62.6875 C-35.6988709 64.31226146 -39.02829263 66.32803257 -42 69 C-42 69.66 -42 70.32 -42 71 C-43.32 71.33 -44.64 71.66 -46 72 C-46 72.66 -46 73.32 -46 74 C-46.70125 74.268125 -47.4025 74.53625 -48.125 74.8125 C-51.02144845 75.95663037 -51.02144845 75.95663037 -53.75732422 77.45288086 C-64.74604559 82.69573038 -78.00979258 84.41027578 -89.875 86.9375 C-91.52411383 87.29154889 -93.17320203 87.6457172 -94.82226562 88 C-104.66347694 90.10789823 -114.5188237 92.12931784 -124.39477539 94.06835938 C-133.72488022 95.91382442 -143.01851452 97.91954774 -152.3125 99.9375 C-153.10873779 100.11037537 -153.90497559 100.28325073 -154.7253418 100.46136475 C-157.90191144 101.15137319 -161.0783639 101.84191773 -164.25466919 102.53314209 C-185.47684908 107.15145768 -206.72693461 111.62285805 -228 116 C-225.95743058 134.03707316 -223.77239949 152.05305259 -221.5 170.0625 C-220.90534672 174.78243884 -220.31163212 179.50249461 -219.71875 184.22265625 C-219.57462173 185.36900543 -219.43049347 186.51535461 -219.28199768 187.69644165 C-218.15651945 196.67793361 -217.07078177 205.66388446 -216.01489258 214.65382385 C-215.28914983 220.78418918 -214.47016733 226.8939655 -213.5625 233 C-211.9463582 243.96826732 -210.64547131 254.97158672 -209.35766602 265.98242188 C-209.27501999 266.68100815 -209.19237396 267.37959442 -209.10722351 268.09934998 C-208.88054657 270.01595241 -208.65673616 271.93289325 -208.43310547 273.84985352 C-208.0943945 276.31343163 -207.67743318 278.61340218 -207 281 C-191.28348619 279.67338265 -175.65402943 277.93476768 -160 276 C-159.67 287.55 -159.34 299.1 -159 311 C-154.62919553 307.25359617 -150.57510054 303.69069094 -146.56640625 299.62890625 C-146.08477524 299.14348862 -145.60314423 298.65807098 -145.10691833 298.15794373 C-143.08257952 296.11753856 -141.06434868 294.07113369 -139.0456543 292.02514648 C-133.21905727 286.12688392 -127.40256222 280.28209293 -121 275 C-120.36054443 274.44530029 -119.72108887 273.89060059 -119.06225586 273.3190918 C-114.13018186 269.26680962 -109.88545044 267.812979 -103.625 266.875 C-102.27728516 266.64598999 -102.27728516 266.64598999 -100.90234375 266.41235352 C-97.9383503 265.916754 -94.97023001 265.45663155 -92 265 C-89.86188736 264.65812573 -87.72386833 264.31566564 -85.5859375 263.97265625 C-74.89248171 262.27926676 -64.17975549 260.7190942 -53.45825195 259.21459961 C-48.03417458 258.44875759 -42.61726531 257.64162469 -37.203125 256.80859375 C-20.8277192 254.29110078 -4.4589653 251.92128931 12 250 C13.48574265 246.6364489 14.2711536 243.85452318 14.45703125 240.1875 C14.51463623 239.21989746 14.57224121 238.25229492 14.6315918 237.25537109 C14.72114136 235.6439624 14.72114136 235.6439624 14.8125 234 C16.82623159 203.41737201 20.96009334 172.97169553 24.6875 142.5625 C24.91280899 140.72313873 24.91280899 140.72313873 25.14266968 138.84661865 C28.0930378 114.81604898 28.0930378 114.81604898 29.66674805 104.70239258 C30.18915421 100.46611875 30.17665222 96.25928136 30 92 C24.464912 92.61462176 19.14265213 93.54839308 13.72265625 94.8125 C12.14010363 95.16984558 10.55741667 95.52659663 8.97460938 95.8828125 C6.53195745 96.43626952 4.09043032 96.99349603 1.65112305 97.56152344 C-9.61102859 100.17416814 -20.43561725 101.70364359 -32 102 C-31.69180259 97.95799323 -31.37768084 93.91646775 -31.0625 89.875 C-30.93198242 88.16183594 -30.93198242 88.16183594 -30.79882812 86.4140625 C-30.66831055 84.75117188 -30.66831055 84.75117188 -30.53515625 83.0546875 C-30.41732788 81.53077393 -30.41732788 81.53077393 -30.29711914 79.97607422 C-29.99532363 76.95315943 -29.50399468 73.99481138 -29 71 C-28.93611612 69.04259807 -28.91361831 67.08329853 -28.9375 65.125 C-28.94652344 64.15820312 -28.95554687 63.19140625 -28.96484375 62.1953125 C-28.97644531 61.47085938 -28.98804688 60.74640625 -29 60 C-29.33 60 -29.66 60 -30 60 Z " fill="#503EE0" transform="translate(365,58)"/>
<path d="M0 0 C-0.2578125 1.87792969 -0.2578125 1.87792969 -1 4 C-8.85173656 9.33406016 -20.87777589 10.58981941 -30 12.75 C-31.82955368 13.18851838 -33.65897915 13.62757199 -35.48828125 14.06713867 C-39.20331713 14.95817751 -42.9194815 15.84426503 -46.63671875 16.72607422 C-50.80348371 17.71453424 -54.96801397 18.71190788 -59.13146973 19.71420288 C-106.04618056 31 -106.04618056 31 -113 31 C-112.67 31.99 -112.34 32.98 -112 34 C-111.84564422 36.42766221 -111.74227166 38.83156963 -111.68359375 41.26171875 C-111.66276733 41.99290924 -111.64194092 42.72409973 -111.6204834 43.47744751 C-111.55417137 45.88069006 -111.49541145 48.28404132 -111.4375 50.6875 C-111.40573166 51.91296036 -111.40573166 51.91296036 -111.37332153 53.16317749 C-110.94474356 69.77670968 -110.887798 86.3820213 -111 103 C-114.10821473 102.74798259 -115.57333968 102.48554882 -117.66625977 100.10375977 C-119.58626059 95.63570733 -120.43271834 91.10427125 -121.33984375 86.33984375 C-121.54707565 85.28916718 -121.75430756 84.2384906 -121.96781921 83.15597534 C-122.63517211 79.75181587 -123.28711838 76.34493934 -123.9375 72.9375 C-124.38784058 70.613522 -124.83819866 68.28954739 -125.28857422 65.96557617 C-128.34983242 50.03666704 -131.09240462 34.11180971 -133 18 C-126.49223198 13.38158398 -118.3376411 12.80163492 -110.625 11.625 C-109.82175293 11.5005249 -109.01850586 11.3760498 -108.19091797 11.24780273 C-105.46129608 10.82724903 -102.73079437 10.4128701 -100 10 C-98.49373047 9.77159424 -98.49373047 9.77159424 -96.95703125 9.53857422 C-47.38485599 2.04634662 -47.38485599 2.04634662 -26.06298828 0.18359375 C-24.13309965 0.01184508 -22.20510339 -0.18080805 -20.27734375 -0.375 C-13.37372382 -1.02095274 -6.87799503 -0.89593122 0 0 Z " fill="#5141D7" transform="translate(213,116)"/>
<path d="M0 0 C0.20275234 18.938628 0.24528445 37.8370095 -0.875 56.75 C-0.9339444 57.82010818 -0.9339444 57.82010818 -0.99407959 58.91183472 C-1.10717593 60.91584948 -1.23675282 62.918914 -1.3671875 64.921875 C-1.44050293 66.05206055 -1.51381836 67.18224609 -1.58935547 68.34667969 C-2 71 -2 71 -4 73 C-6.3972168 73.54663086 -6.3972168 73.54663086 -9.44921875 73.96484375 C-10.59076416 74.123479 -11.73230957 74.28211426 -12.90844727 74.44555664 C-14.15553467 74.60789795 -15.40262207 74.77023926 -16.6875 74.9375 C-17.98679443 75.11079834 -19.28608887 75.28409668 -20.62475586 75.46264648 C-42.79894305 78.37354558 -65.09936711 80.13029996 -87.38476562 81.93896484 C-96.02673484 82.64382411 -104.64635045 83.45892624 -113.26196289 84.43725586 C-118.85580106 85.04765077 -124.37923645 85.22735673 -130 85 C-130.66 83.68 -131.32 82.36 -132 81 C-129.01014808 77.51770188 -127.09973129 76.47310261 -122.5625 75.9375 C-118.35059232 75.38572315 -114.27512441 74.65171147 -110.1484375 73.6484375 C-102.91435717 71.94675471 -95.64194609 70.5205992 -88.34432983 69.12435913 C-84.40294761 68.36977665 -80.46332805 67.6060754 -76.5234375 66.84375 C-75.7278392 66.69000412 -74.93224091 66.53625824 -74.11253357 66.37785339 C-66.13339611 64.83505806 -58.15884164 63.27005671 -50.1875 61.6875 C-48.95588135 61.44539795 -47.7242627 61.2032959 -46.45532227 60.95385742 C-39.68477566 59.6226912 -39.68477566 59.6226912 -33.015625 57.87109375 C-30.14777879 57.0426874 -27.53071351 56.61896275 -24.5625 56.375 C-23.69753906 56.30023438 -22.83257812 56.22546875 -21.94140625 56.1484375 C-21.30074219 56.09945312 -20.66007812 56.05046875 -20 56 C-18.04475748 48.35768154 -16.11419107 40.72314625 -14.5 33 C-9.19420601 7.73980687 -9.19420601 7.73980687 -6 0 C-3.50907189 -1.24546405 -2.58919267 -0.7767578 0 0 Z " fill="#4F3FD9" transform="translate(426,282)"/>
<path d="M0 0 C4.83484153 3.42467942 6.67050797 7.4631756 7.6875 13.1953125 C7.96220383 20.0018629 7.07290264 25.28602089 2.55078125 30.53125 C-1.95302821 34.55352009 -6.80396947 36.59276591 -12.875 36.2578125 C-19.39621278 35.09696834 -24.40723498 31.91262728 -28.3125 26.5703125 C-31.07892817 21.60011951 -31.18326728 16.73435989 -30.3125 11.1953125 C-28.30876324 4.81106612 -24.9155647 1.25420661 -19.125 -2.0546875 C-12.33957421 -3.86413438 -6.12602899 -3.53234736 0 0 Z " fill="#513FDE" transform="translate(276.3125,221.8046875)"/>
<path d="M0 0 C4.67363125 3.32347111 8.97600324 7.49050973 10.8125 13 C11.54738402 19.89104359 10.97546991 24.41285617 6.8125 30 C2.43548068 34.50892949 -1.65342728 36.6993473 -7.875 37.4375 C-13.27046627 37.28392885 -17.77970181 34.98794107 -22.1875 32 C-26.48156636 26.86806703 -27.52180552 22.77720631 -27.3984375 16.15234375 C-26.88694235 10.93319877 -25.29855131 6.62820488 -21.3125 3.125 C-14.55935389 -1.46713935 -7.88520012 -2.47378827 0 0 Z " fill="#513FDF" transform="translate(219.1875,220)"/>
<path d="M0 0 C5.20175581 3.30111426 8.31264671 8.25044014 10.25 14.0625 C10.88647895 21.57295159 9.07190348 26.46214038 4.4375 32.375 C-0.12544813 35.89498856 -4.81770554 37.66295813 -10.6328125 37.4140625 C-15.92669063 36.53500525 -20.35543112 34.42131071 -24.1875 30.6875 C-27.5405983 25.05429486 -28.68698355 19.54511878 -27.75 13.0625 C-26.64881886 10.17549032 -25.31281727 7.74859218 -23.75 5.0625 C-23.09 5.0625 -22.43 5.0625 -21.75 5.0625 C-21.42 4.0725 -21.09 3.0825 -20.75 2.0625 C-13.98481627 -1.82388214 -7.48021348 -1.87005337 0 0 Z " fill="#513FE1" transform="translate(327.75,219.9375)"/>
<path d="M0 0 C-0.2590332 1.87817383 -0.2590332 1.87817383 -1 4 C-8.90805204 9.3982462 -21.11316206 10.63840732 -30.3125 12.8125 C-32.13971052 13.24915596 -33.96677648 13.68641729 -35.79370117 14.12426758 C-38.55062453 14.78463615 -41.30772642 15.44417658 -44.06562805 16.10044861 C-49.71934898 17.44666643 -55.3629172 18.82803797 -61 20.2421875 C-62.34588415 20.57732063 -63.69182929 20.91220893 -65.0378418 21.24682617 C-67.4992803 21.86023556 -69.95917206 22.47989555 -72.41723633 23.10668945 C-74.04568481 23.50827271 -74.04568481 23.50827271 -75.70703125 23.91796875 C-76.6400708 24.15281982 -77.57311035 24.3876709 -78.53442383 24.62963867 C-81.05664541 25.00850887 -82.60661836 24.81389678 -85 24 C-84.34 22.68 -83.68 21.36 -83 20 C-82.01 20.33 -81.02 20.66 -80 21 C-78.00038436 21.03920815 -75.99950636 21.04443347 -74 21 C-73.67 20.01 -73.34 19.02 -73 18 C-72.21753906 17.87882812 -71.43507812 17.75765625 -70.62890625 17.6328125 C-69.61699219 17.46523437 -68.60507813 17.29765625 -67.5625 17.125 C-66.04849609 16.88136719 -66.04849609 16.88136719 -64.50390625 16.6328125 C-63.67761719 16.42398438 -62.85132813 16.21515625 -62 16 C-60.54685336 13.60532389 -60.54685336 13.60532389 -62 9 C-65.63 9 -69.26 9 -73 9 C-73 8.01 -73 7.02 -73 6 C-57.38210054 3.76561913 -41.78455772 1.557085 -26.06298828 0.18359375 C-24.13309965 0.01184508 -22.20510339 -0.18080805 -20.27734375 -0.375 C-13.37372382 -1.02095274 -6.87799503 -0.89593122 0 0 Z " fill="#4D3ED3" transform="translate(213,116)"/>
<path d="M0 0 C0 0.33 0 0.66 0 1 C-3.93716736 1.79332676 -7.87479439 2.58434958 -11.8125 3.375 C-12.91271484 3.59671875 -14.01292969 3.8184375 -15.14648438 4.046875 C-21.40505188 5.30228087 -27.66532521 6.49429887 -33.9597168 7.55712891 C-35.98428927 7.80394899 -35.98428927 7.80394899 -37 9 C-39.38416864 9.28774449 -41.76904842 9.44791581 -44.1640625 9.62109375 C-47.13048214 9.93878271 -47.13048214 9.93878271 -50.39453125 11.0390625 C-54.18578714 12.0495164 -57.15667413 12.10325322 -61.0625 11.9375 C-69.55047522 11.83645268 -79.88614657 11.79817185 -86.625 17.625 C-87.40875 18.40875 -88.1925 19.1925 -89 20 C-91.1875 20.75 -91.1875 20.75 -93 21 C-96.11785113 21.64644661 -96.11785113 21.64644661 -97 24 C-97.66 24 -98.32 24 -99 24 C-99.268125 24.53625 -99.53625 25.0725 -99.8125 25.625 C-100.204375 26.40875 -100.59625 27.1925 -101 28 C-101.474375 29.010625 -101.94875 30.02125 -102.4375 31.0625 C-103.84476044 33.70814963 -104.70921909 35.16315263 -107 37 C-109.97541807 37.67319476 -112.96191135 37.77984865 -116 38 C-111.77956886 32.91333839 -107.34663107 28.30175323 -102.5 23.8125 C-101.86191406 23.20986328 -101.22382813 22.60722656 -100.56640625 21.98632812 C-93.97404559 15.84559135 -88.65804444 12.48383051 -79.75 11 C-78.8425 10.83830322 -77.935 10.67660645 -77 10.51000977 C-59.17513366 7.38915268 -41.24771694 4.82107797 -23.32617188 2.32470703 C-21.07626705 2.01064601 -18.82720275 1.69101441 -16.578125 1.37109375 C-15.23964387 1.18446113 -13.9011059 0.99823556 -12.5625 0.8125 C-11.42941406 0.65394531 -10.29632813 0.49539063 -9.12890625 0.33203125 C-6.05915564 0.00627744 -3.08431623 -0.06047679 0 0 Z " fill="#4C3BC9" transform="translate(341,313)"/>
<path d="M0 0 C0.33 0 0.66 0 1 0 C2.54417168 4.24647213 3.08497512 7.66706695 2.9375 12.1875 C2.80529788 18.77281832 3.81080057 25.00963067 4.86083984 31.48608398 C5.84126198 37.6267753 6.43364129 43.64177175 6.69140625 49.859375 C6.99339843 52.93281438 7.71406888 55.72479612 8.50317383 58.70214844 C9.50173756 63.32056703 9.71792875 68.04585331 10.0625 72.75 C10.21710401 74.78668427 10.37454184 76.8231559 10.53515625 78.859375 C10.600979 79.75108398 10.66680176 80.64279297 10.73461914 81.56152344 C10.93524396 83.93528009 10.93524396 83.93528009 11.4934082 85.9387207 C12.72714403 90.95868775 12.74298514 96.29644092 13.125 101.4375 C13.22425781 102.66533203 13.32351562 103.89316406 13.42578125 105.15820312 C13.51472656 106.34220703 13.60367188 107.52621094 13.6953125 108.74609375 C13.77797363 109.82560303 13.86063477 110.9051123 13.94580078 112.01733398 C13.99748594 114.86164741 13.67752184 117.24689033 13 120 C12.67 120 12.34 120 12 120 C10.80085046 112.40963855 9.86011325 104.84129448 9.1875 97.1875 C8.23296425 86.59946499 6.975266 76.05162047 5.6875 65.5 C5.58099121 64.62689178 5.47448242 63.75378357 5.36474609 62.85421753 C3.55227043 48.05567304 1.59448667 33.27831449 -0.47583008 18.51367188 C-0.62973206 17.40321503 -0.62973206 17.40321503 -0.78674316 16.27032471 C-1.06210225 14.28435851 -1.34109042 12.29889644 -1.62036133 10.31347656 C-1.94562064 7.47462163 -2.23826237 4.84639014 -2 2 C-1.34 1.34 -0.68 0.68 0 0 Z " fill="#594EBC" transform="translate(119,239)"/>
<path d="M0 0 C1.9375 0.375 1.9375 0.375 4 1 C5.18306728 3.36613456 5.13354608 4.86780736 5.125 7.5 C5.12757813 8.2940625 5.13015625 9.088125 5.1328125 9.90625 C5 12 5 12 4 14 C3.70728413 16.17451322 3.46441748 18.35582521 3.24609375 20.5390625 C3.11396484 21.84101563 2.98183594 23.14296875 2.84570312 24.484375 C2.70955092 25.864575 2.57348432 27.24478345 2.4375 28.625 C2.29788541 30.01305703 2.15791583 31.4010784 2.01757812 32.7890625 C1.67488368 36.19237287 1.33584955 39.59600846 1 43 C13.65944668 42.85256481 13.65944668 42.85256481 25.80078125 39.7578125 C29.69714157 38.41519456 33.77486283 38.03830762 37.84375 37.47265625 C40.60993668 37.05841295 43.28122358 36.52297505 46 35.875 C49.06635382 35.15217626 51.82994488 34.79548031 55 35 C54.01 35.33 53.02 35.66 52 36 C52 36.66 52 37.32 52 38 C47.04713792 39.16328642 42.08927615 40.3011358 37.12573242 41.41796875 C35.44584179 41.79942025 33.76737659 42.18721721 32.09057617 42.58203125 C20.54405116 45.2947899 9.86164249 46.55032671 -2 46 C-3.14178624 42.57464127 -2.90247857 40.57774705 -2.51171875 37.00390625 C-2.38216797 35.80443359 -2.25261719 34.60496094 -2.11914062 33.36914062 C-1.90547852 31.48485352 -1.90547852 31.48485352 -1.6875 29.5625 C-1.55666016 28.34111328 -1.42582031 27.11972656 -1.29101562 25.86132812 C-0.44597642 18.19065822 0.64048392 10.59626319 2 3 C1.34 2.67 0.68 2.34 0 2 C0 1.34 0 0.68 0 0 Z " fill="#4A3EC1" transform="translate(335,114)"/>
<path d="M0 0 C0.66 0.33 1.32 0.66 2 1 C-1.75 8.23214286 -1.75 8.23214286 -6 10 C-6.39896218 18.30432396 -6.06867217 23.28529159 -0.625 29.875 C3.42449557 33.07142924 8.2476302 32.46665558 13.171875 32.37109375 C16.13124322 32.27482491 16.13124322 32.27482491 18 30 C20 28 20 28 23 27 C26.39269261 21.91096109 25.68044463 15.93347719 25 10 C23.65744355 7.06703053 22.56550758 6.08820384 20 4 C19.01 3.67 18.02 3.34 17 3 C17 2.34 17 1.68 17 1 C19.83842501 1.08348309 21.54049314 1.5723728 23.6328125 3.51953125 C28.16739045 8.7222475 29.36771714 12.5350917 29.27734375 19.43359375 C28.70560167 24.72422116 25.99596064 28.31609054 22.0625 31.8125 C17.51022993 35.06412148 13.9649982 36.54146105 8.25390625 36.37890625 C2.26127152 35.37147892 -2.69635815 32.558011 -6.5625 27.9375 C-9.60432435 21.72159807 -10.00321674 15.43500973 -7.875 8.8125 C-6.16289761 4.61908981 -3.64790146 2.59406326 0 0 Z " fill="#6055BB" transform="translate(201,221)"/>
<path d="M0 0 C2.13671875 0.40625 2.13671875 0.40625 4 1 C5.80252065 13.49798788 4.23012045 25.82318152 3.0625 38.3125 C2.86425672 40.51749045 2.66698301 42.72256829 2.47070312 44.92773438 C1.99164614 50.28621543 1.50061763 55.6434925 1 61 C0.34 60.67 -0.32 60.34 -1 60 C-1.02900455 56.3958502 -1.04680018 52.79173038 -1.0625 49.1875 C-1.07087891 48.16333984 -1.07925781 47.13917969 -1.08789062 46.08398438 C-1.09272461 44.60961914 -1.09272461 44.60961914 -1.09765625 43.10546875 C-1.10551147 41.74651489 -1.10551147 41.74651489 -1.11352539 40.36010742 C-1 38 -1 38 0 35 C0.04457673 32.81295424 0.0390999 30.62465053 0 28.4375 C-0.11087191 22.22174381 -0.11087191 22.22174381 1 20 C1.23274209 17.12089412 1.41972757 14.25853505 1.5625 11.375 C1.60568359 10.57320312 1.64886719 9.77140625 1.69335938 8.9453125 C1.79951457 6.9637489 1.90026855 4.98189729 2 3 C-2.93626254 5.63267335 -3.88514127 7.85077875 -6 13 C-8.1875 14.9375 -8.1875 14.9375 -10 16 C-10.99 15.34 -11.98 14.68 -13 14 C-13.33 14.99 -13.66 15.98 -14 17 C-15.32 16.34 -16.64 15.68 -18 15 C-17.01 14.67 -16.02 14.34 -15 14 C-14.67 13.01 -14.34 12.02 -14 11 C-12.109375 9.31640625 -12.109375 9.31640625 -9.75 7.5625 C-7.12821754 5.60551183 -4.63590987 3.67636433 -2.1875 1.5 C-1.465625 1.005 -0.74375 0.51 0 0 Z " fill="#5C51B6" transform="translate(365,58)"/>
<path d="M0 0 C2.4375 0.25 2.4375 0.25 4.4375 1.25 C6.81152501 1.32116382 9.18750677 1.33409085 11.5625 1.3125 C12.84382813 1.30347656 14.12515625 1.29445313 15.4453125 1.28515625 C16.43273437 1.27355469 17.42015625 1.26195312 18.4375 1.25 C14.75195423 3.46821301 10.87253803 4.00724235 6.69140625 4.65234375 C5.55257996 4.83583122 5.55257996 4.83583122 4.39074707 5.02302551 C1.92817272 5.41784213 -0.53580547 5.80293662 -3 6.1875 C-4.69284966 6.45632853 -6.3856393 6.72553526 -8.07836914 6.99511719 C-19.19647558 8.75785412 -30.32450849 10.4371994 -41.47851562 11.95751953 C-43.5150442 12.24333973 -45.54649566 12.55245614 -47.578125 12.87109375 C-54.30545876 13.90882077 -60.75336237 14.53240663 -67.5625 14.25 C-64.61928158 11.30678158 -61.08958943 11.30625095 -57.125 10.6875 C-55.58431379 10.43817734 -54.04393447 10.18694895 -52.50390625 9.93359375 C-51.47825562 9.77201782 -51.47825562 9.77201782 -50.43188477 9.60717773 C-48.34574097 9.25139565 -48.34574097 9.25139565 -45.5625 8.25 C-43.95375 8.311875 -43.95375 8.311875 -42.3125 8.375 C-34.51018207 8.49080435 -26.34028978 6.39835071 -18.92578125 4.14453125 C-15.00764564 3.1024255 -11.7966692 3.21801097 -7.796875 3.47265625 C-4.18078972 3.11231209 -3.63452764 0.35458806 0 0 Z " fill="#4D41C0" transform="translate(331.5625,337.75)"/>
<path d="M0 0 C3.3 0 6.6 0 10 0 C10.25 8.625 10.25 8.625 8 12 C7.54250392 14.33084515 7.54250392 14.33084515 7.3671875 16.9375 C7.28339844 17.91589844 7.19960937 18.89429688 7.11328125 19.90234375 C7.03464844 20.92457031 6.95601562 21.94679688 6.875 23 C6.78863281 23.99128906 6.70226562 24.98257812 6.61328125 26.00390625 C6.20592667 30.96328661 5.97671076 35.83629095 6.0703125 40.8125 C6.11777834 45.24224976 5.28737863 48.7458428 4 53 C3.63044638 56.30715623 3.49634851 59.61305634 3.375 62.9375 C3.33632812 63.81212891 3.29765625 64.68675781 3.2578125 65.58789062 C3.1643893 67.72494631 3.08114602 69.86244294 3 72 C2.01 72.495 2.01 72.495 1 73 C-1.3806528 65.85804159 0.09442616 57.49908726 0.8046875 50.109375 C0.88872833 49.20229797 0.97276917 48.29522095 1.05935669 47.36065674 C1.23704905 45.45458417 1.41699863 43.54872079 1.59912109 41.64306641 C1.87293152 38.77169156 2.13818673 35.89962096 2.40234375 33.02734375 C5.01995541 4.96008917 5.01995541 4.96008917 7 1 C6.01 1.495 6.01 1.495 5 2 C3.00039988 2.039992 0.99952758 2.04346799 -1 2 C-0.67 1.34 -0.34 0.68 0 0 Z " fill="#5A50C3" transform="translate(170,365)"/>
<path d="M0 0 C0.33 0 0.66 0 1 0 C1.05618586 2.43784206 1.09465779 4.87428648 1.125 7.3125 C1.15013672 8.28993164 1.15013672 8.28993164 1.17578125 9.28710938 C1.24969341 17.38049037 0.17807611 25.38782191 -0.71655273 33.4178772 C-1.18053114 37.64458663 -1.60712683 41.87499365 -2.03515625 46.10546875 C-2.20628633 47.78451478 -2.37751027 49.46355124 -2.54882812 51.14257812 C-2.80809456 53.68754142 -3.06707166 56.23253319 -3.32543945 58.77758789 C-3.58202996 61.30363194 -3.83976075 63.82955764 -4.09765625 66.35546875 C-4.17371597 67.10765182 -4.2497757 67.8598349 -4.32814026 68.6348114 C-4.54530617 70.75733425 -4.77010276 72.8788202 -5 75 C-5.08031464 75.75254059 -5.16062927 76.50508118 -5.24337769 77.28042603 C-5.88200938 82.88200938 -5.88200938 82.88200938 -7 84 C-9.53049402 84.07313567 -12.03304837 84.09247527 -14.5625 84.0625 C-15.27341797 84.05798828 -15.98433594 84.05347656 -16.71679688 84.04882812 C-18.47790013 84.03700864 -20.23896036 84.01907263 -22 84 C-22 83.67 -22 83.34 -22 83 C-15.565 82.01 -15.565 82.01 -9 81 C-8.22060719 77.88242878 -7.81938262 75.43652984 -7.640625 72.28515625 C-7.57931396 71.3101416 -7.51800293 70.33512695 -7.45483398 69.33056641 C-7.38723877 68.25210449 -7.31964355 67.17364258 -7.25 66.0625 C-6.34320786 52.70930024 -4.92425197 39.4245397 -3.4375 26.125 C-3.32563354 25.11752716 -3.21376709 24.11005432 -3.09851074 23.072052 C-2.77587613 20.17527098 -2.44943689 17.27895155 -2.12109375 14.3828125 C-2.02322067 13.50988052 -1.9253476 12.63694855 -1.82450867 11.73756409 C-1.36965776 7.78191446 -0.87405581 3.89031767 0 0 Z " fill="#4639B6" transform="translate(386,226)"/>
<path d="M0 0 C0 0.33 0 0.66 0 1 C-4.26616316 2.13764351 -7.56486311 3 -12 3 C-12.33 3.99 -12.66 4.98 -13 6 C-13.60295898 5.98042236 -14.20591797 5.96084473 -14.82714844 5.94067383 C-21.1657262 5.8251714 -27.04099962 6.44854809 -33.25 7.6875 C-34.10851562 7.83638672 -34.96703125 7.98527344 -35.8515625 8.13867188 C-41.65430438 9.27690201 -44.6729388 11.01140525 -49 15 C-51.5 14.875 -51.5 14.875 -54 14 C-55.99897128 13.66055205 -57.99875639 13.32578384 -60 13 C-60 13.66 -60 14.32 -60 15 C-61.55966592 15.36644578 -63.12292651 15.71760862 -64.6875 16.0625 C-65.99267578 16.35833984 -65.99267578 16.35833984 -67.32421875 16.66015625 C-70.16001276 17.02032279 -72.24789982 16.70909969 -75 16 C-74.67 15.34 -74.34 14.68 -74 14 C-71.37548591 13.24745391 -68.8019837 12.61858869 -66.13671875 12.046875 C-64.91960457 11.77540146 -64.91960457 11.77540146 -63.67790222 11.4984436 C-61.01623908 10.9070963 -58.35206665 10.32811193 -55.6875 9.75 C-53.86267824 9.3489918 -52.03797153 8.94745969 -50.21337891 8.54541016 C-46.54640966 7.73883797 -42.87833384 6.93756751 -39.20947266 6.13964844 C-35.25163947 5.27709375 -31.29863496 4.39549899 -27.348526 3.49829102 C-24.19251814 2.78232816 -21.03351602 2.0798017 -17.875 1.375 C-16.74666748 1.11557617 -15.61833496 0.85615234 -14.45581055 0.58886719 C-5.09277178 -1.46262996 -5.09277178 -1.46262996 0 0 Z " fill="#4638BC" transform="translate(192,136)"/>
<path d="M0 0 C0.99 0.33 1.98 0.66 3 1 C3 1.33 3 1.66 3 2 C7.31248547 2.02929984 11.62494493 2.04689903 15.9375 2.0625 C17.14986328 2.07087891 18.36222656 2.07925781 19.61132812 2.08789062 C26.17572812 2.10568033 32.49092277 1.82654949 39 1 C42.01249471 0.89669085 44.98399586 0.95212692 48 1 C48 1.66 48 2.32 48 3 C36.23212496 4.33274729 24.46407416 5.38021075 12.65258789 6.24511719 C5.93807556 6.74589738 -0.74742031 7.36712087 -7.4375 8.125 C-13.98137628 8.86383588 -20.40602824 9.26672245 -27 9 C-27.66 7.68 -28.32 6.36 -29 5 C-28.01 4.34 -27.02 3.68 -26 3 C-26 4.32 -26 5.64 -26 7 C-22.37244241 6.78079608 -18.7491441 6.51945309 -15.125 6.25 C-13.57619141 6.1571875 -13.57619141 6.1571875 -11.99609375 6.0625 C-11.00996094 5.98515625 -10.02382813 5.9078125 -9.0078125 5.828125 C-8.09660645 5.7652832 -7.18540039 5.70244141 -6.24658203 5.63769531 C-3.82807543 5.22871937 -3.82807543 5.22871937 -2.81201172 3.01074219 C-2.41006592 2.0154248 -2.41006592 2.0154248 -2 1 C-1.34 0.67 -0.68 0.34 0 0 Z " fill="#5B50C1" transform="translate(323,358)"/>
<path d="M0 0 C2.53894356 2.53894356 2.25689997 3.44288065 2.265625 6.9609375 C2.26820313 7.9921875 2.27078125 9.0234375 2.2734375 10.0859375 C2.26570313 11.17132813 2.25796875 12.25671875 2.25 13.375 C2.25773437 14.39078125 2.26546875 15.4065625 2.2734375 16.453125 C2.22895689 34.64569452 -0.67510942 52.76180222 -3.125 70.75 C-3.40525987 72.82678084 -3.68520928 74.90360361 -3.96484375 76.98046875 C-4.63966902 81.98746725 -5.31863035 86.99388807 -6 92 C-6.33 92 -6.66 92 -7 92 C-7.05569146 89.64548878 -7.09444548 87.29238046 -7.125 84.9375 C-7.14820313 83.62652344 -7.17140625 82.31554687 -7.1953125 80.96484375 C-7.09426024 74.92616668 -6.13313572 68.98995204 -5.28344727 63.01980591 C-2.33803668 42.03121854 -0.30974251 21.20668136 0 0 Z " fill="#4D41B3" transform="translate(423,117)"/>
<path d="M0 0 C0.66 0.33 1.32 0.66 2 1 C2.80642039 22.3444034 3.13950428 43.64082194 3 65 C1.35 64.67 -0.3 64.34 -2 64 C-2 62 -2 62 0 60 C0.29323962 57.36962499 0.29323962 57.36962499 0.22705078 54.26513672 C0.22689972 53.06404266 0.22674866 51.86294861 0.22659302 50.62545776 C0.21110916 48.67230148 0.21110916 48.67230148 0.1953125 46.6796875 C0.19158276 45.33733327 0.18873561 43.99497633 0.18673706 42.65261841 C0.17909744 39.117986 0.1594463 35.58351772 0.1373291 32.0489502 C0.11687765 28.4428123 0.10773685 24.83664791 0.09765625 21.23046875 C0.0762006 14.15357865 0.04206079 7.07680003 0 0 Z " fill="#3F35AE" transform="translate(99,154)"/>
<path d="M0 0 C0.66 0 1.32 0 2 0 C4.00330685 12.52473956 5.71096904 25.08734855 7.34341431 37.66500854 C7.57201614 39.42393493 7.80212867 41.18266566 8.03378296 42.94119263 C8.36440959 45.45631134 8.6888935 47.97215068 9.01171875 50.48828125 C9.11158081 51.24187927 9.21144287 51.99547729 9.31433105 52.77191162 C9.87655555 57.22129175 10.09333769 61.51499467 10 66 C9.67 66 9.34 66 9 66 C5.69131866 54.87719891 4.4279121 43.48132517 3 32 C2.89800293 31.20271484 2.79600586 30.40542969 2.69091797 29.58398438 C1.43100578 19.73492463 0.54844322 9.91527603 0 0 Z " fill="#5046B2" transform="translate(147,267)"/>
<path d="M0 0 C0 0.66 0 1.32 0 2 C-5.23881719 3.08923051 -10.48065675 4.10115614 -15.76171875 4.96484375 C-17.22254883 5.20557617 -17.22254883 5.20557617 -18.71289062 5.45117188 C-20.70676325 5.7771563 -22.7015807 6.09741019 -24.69726562 6.41210938 C-31.08658937 7.47770423 -36.21107517 9.10553759 -42 12 C-43.7895469 12.09657872 -45.58285534 12.12980468 -47.375 12.125 C-48.33148438 12.12757813 -49.28796875 12.13015625 -50.2734375 12.1328125 C-52.68140854 12.01551878 -54.69990068 11.68675951 -57 11 C-57 8.69 -57 6.38 -57 4 C-56.67 4 -56.34 4 -56 4 C-56 5.98 -56 7.96 -56 10 C-55.38705078 9.86424561 -54.77410156 9.72849121 -54.14257812 9.58862305 C-10.74016081 0 -10.74016081 0 0 0 Z " fill="#5F55B6" transform="translate(421,116)"/>
<path d="M0 0 C0.34764808 24.72164158 0.34764808 24.72164158 -2 35 C-2.33 35 -2.66 35 -3 35 C-3.22673326 30.62575083 -3.42813881 26.25068728 -3.625 21.875 C-3.68945312 20.6375 -3.75390625 19.4 -3.8203125 18.125 C-3.871875 16.92617188 -3.9234375 15.72734375 -3.9765625 14.4921875 C-4.02893066 13.39245605 -4.08129883 12.29272461 -4.13525391 11.15966797 C-3.99025277 7.77229489 -3.21602659 5.15004841 -2 2 C-2.66 2 -3.32 2 -4 2 C-4.12117188 2.83144531 -4.24234375 3.66289062 -4.3671875 4.51953125 C-4.61855469 6.14955078 -4.61855469 6.14955078 -4.875 7.8125 C-5.03742188 8.89144531 -5.19984375 9.97039062 -5.3671875 11.08203125 C-6 14 -6 14 -8 17 C-8.38499891 18.65549531 -8.72793135 20.3222433 -9 22 C-9.66 22 -10.32 22 -11 22 C-10.48128186 14.34890738 -8.82006109 7.15124926 -6 0 C-3.50907189 -1.24546405 -2.58919267 -0.7767578 0 0 Z " fill="#4939B8" transform="translate(426,282)"/>
<path d="M0 0 C-0.99 0.33 -1.98 0.66 -3 1 C-3 1.66 -3 2.32 -3 3 C-7.95286208 4.16328642 -12.91072385 5.3011358 -17.87426758 6.41796875 C-19.55415821 6.79942025 -21.23262341 7.18721721 -22.90942383 7.58203125 C-34.45594884 10.2947899 -45.13835751 11.55032671 -57 11 C-56.34 9.68 -55.68 8.36 -55 7 C-55 7.66 -55 8.32 -55 9 C-40.05616916 9.16640034 -40.05616916 9.16640034 -27 4 C-25.00674467 3.6470277 -23.00470321 3.34325126 -21 3.0625 C-16.95289526 2.47229722 -12.97866178 1.82262046 -9 0.875 C-5.93364618 0.15217626 -3.17005512 -0.20451969 0 0 Z " fill="#645ABA" transform="translate(390,149)"/>
<path d="M0 0 C0.33 0 0.66 0 1 0 C1.05382106 2.62527189 1.09358313 5.24944713 1.125 7.875 C1.14175781 8.62136719 1.15851563 9.36773437 1.17578125 10.13671875 C1.1933959 12.09194461 1.10320189 14.04742021 1 16 C-2.8615354 19.8615354 -9.57411656 19.42792581 -14.8125 20.125 C-16.07771484 20.30675781 -17.34292969 20.48851562 -18.64648438 20.67578125 C-26.81624759 21.78964953 -34.75815451 22.23520751 -43 22 C-39.71010944 19.80673963 -38.23291605 19.67671115 -34.375 19.4375 C-30.8749469 19.49724871 -30.8749469 19.49724871 -28 18 C-25.31067053 17.59288604 -22.63855455 17.24417987 -19.9375 16.9375 C-19.19822266 16.84662109 -18.45894531 16.75574219 -17.69726562 16.66210938 C-12.76498838 16.08818735 -7.96498549 15.91546563 -3 16 C-2.67 13.36 -2.34 10.72 -2 8 C-1.67 8 -1.34 8 -1 8 C-0.67 5.36 -0.34 2.72 0 0 Z " fill="#5D53BB" transform="translate(423,337)"/>
<path d="M0 0 C3.16031676 0.31173193 4.60204879 0.55802764 6.765625 2.9609375 C7.25546875 3.75757813 7.7453125 4.55421875 8.25 5.375 C8.75015625 6.16648438 9.2503125 6.95796875 9.765625 7.7734375 C12.14949973 12.0734647 12.62809363 16.1731435 12 21 C9.80508078 27.28906906 6.65945785 31.56798423 0.75 34.75 C-3.54443699 36.181479 -6.51664868 36.23596586 -11 36 C-11 35.34 -11 34.68 -11 34 C-10.01 33.9175 -9.02 33.835 -8 33.75 C-1.93417742 32.83951142 2.55093609 30.7388767 6.5 26 C8.90832599 20.96638171 9.01203748 15.41220045 8 10 C6.63829528 7.72524472 5.24765071 6.10545274 3.3125 4.3046875 C2.879375 3.87414062 2.44625 3.44359375 2 3 C2 2.34 2 1.68 2 1 C1.34 0.67 0.68 0.34 0 0 Z " fill="#645AC1" transform="translate(326,221)"/>
<path d="M0 0 C1.48104563 2.78487213 2.49463153 5.47567536 3.375 8.5 C4.58495876 12.27879429 5.95305728 14.37332524 9 17 C9 17.66 9 18.32 9 19 C12.3 18.67 15.6 18.34 19 18 C19.33 16.35 19.66 14.7 20 13 C20.66 13 21.32 13 22 13 C22 14.98 22 16.96 22 19 C23.65 19 25.3 19 27 19 C26.360625 19.309375 25.72125 19.61875 25.0625 19.9375 C23.06389179 20.8345163 23.06389179 20.8345163 22 22 C17.27322906 22.96137714 13.23722166 23.41240722 8.625 21.875 C3.80404698 18.43146213 1.33137932 14.7693104 0 9 C-0.14797801 5.99111375 -0.12037402 3.00935062 0 0 Z " fill="#503FDB" transform="translate(300,233)"/>
<path d="M0 0 C0.33 0.66 0.66 1.32 1 2 C4.02934491 2.65772428 4.02934491 2.65772428 7 3 C7 3.66 7 4.32 7 5 C-0.30166271 7.01425178 -0.30166271 7.01425178 -4.0625 6.9375 C-7.18440423 6.82060012 -7.18440423 6.82060012 -10.5 8.5 C-14.02700929 10.01157541 -16.22152514 10.27647377 -20 10 C-20 9.01 -20 8.02 -20 7 C-14.15417289 2.39419682 -7.07666445 2.87584799 0 3 C0 2.01 0 1.02 0 0 Z " fill="#4F3DD7" transform="translate(202,115)"/>
<path d="M0 0 C2.83842501 0.08348309 4.54049314 0.5723728 6.6328125 2.51953125 C11.16894713 7.72403354 12.355535 11.53257039 12.28515625 18.4296875 C11.72801166 23.45162092 9.1150598 26.60617525 6 30.5 C4 32 4 32 1.75 31.75 C1.1725 31.5025 0.595 31.255 0 31 C0.495 29.515 0.495 29.515 1 28 C2.66072849 27.31867549 4.327767 26.65257873 6 26 C9.39269261 20.91096109 8.68044463 14.93347719 8 9 C6.65744355 6.06703053 5.56550758 5.08820384 3 3 C2.01 2.67 1.02 2.34 0 2 C0 1.34 0 0.68 0 0 Z " fill="#5044B4" transform="translate(218,222)"/>
<path d="M0 0 C-0.66 0.33 -1.32 0.66 -2 1 C-2 1.66 -2 2.32 -2 3 C-2.96679688 3.04898437 -3.93359375 3.09796875 -4.9296875 3.1484375 C-13.46263244 3.58807983 -13.46263244 3.58807983 -21.875 5 C-29.11041782 6.64888773 -36.6110364 6.67426843 -44 7 C-42.08374621 4.35087431 -40.91221021 3.98145565 -37.64941406 3.29223633 C-36.27307414 3.12517134 -34.89491632 2.97266468 -33.515625 2.83203125 C-32.78180603 2.74749191 -32.04798706 2.66295258 -31.29193115 2.57585144 C-29.73924727 2.39936701 -28.18584219 2.22913132 -26.63183594 2.06469727 C-24.27112333 1.81473661 -21.91301151 1.54687899 -19.5546875 1.27539062 C-18.04178497 1.10571266 -16.52876701 0.93706019 -15.015625 0.76953125 C-13.9683725 0.65240532 -13.9683725 0.65240532 -12.89996338 0.53291321 C-8.56640427 0.07790187 -4.34865557 -0.06973992 0 0 Z " fill="#584DB9" transform="translate(202,334)"/>
<path d="M0 0 C0 0.66 0 1.32 0 2 C-5.08837951 3.16638745 -10.1786807 4.32381802 -15.27099609 5.47290039 C-17.00397996 5.86528329 -18.73640735 6.26013224 -20.46826172 6.6574707 C-22.9539897 7.2273242 -25.44156717 7.78835394 -27.9296875 8.34765625 C-28.70682098 8.52780777 -29.48395447 8.70795929 -30.28463745 8.89356995 C-35.77225659 10.11387171 -35.77225659 10.11387171 -38 9 C-37.67 8.34 -37.34 7.68 -37 7 C-34.93819224 6.41756843 -32.84831607 5.9328365 -30.75 5.5 C-26.03581789 4.5250209 -26.03581789 4.5250209 -21.49609375 2.97265625 C-18.44944692 1.78546523 -15.54919042 1.37668604 -12.3125 0.9375 C-1.71547033 -0.5146411 -1.71547033 -0.5146411 0 0 Z " fill="#6155CA" transform="translate(301,138)"/>
<path d="M0 0 C-0.33 0.66 -0.66 1.32 -1 2 C-1.66 2 -2.32 2 -3 2 C-3.66 3.32 -4.32 4.64 -5 6 C-5.66 6 -6.32 6 -7 6 C-7.66 7.32 -8.32 8.64 -9 10 C-9.66 10 -10.32 10 -11 10 C-11.66 11.32 -12.32 12.64 -13 14 C-13.66 14 -14.32 14 -15 14 C-15.66 15.32 -16.32 16.64 -17 18 C-17.66 18 -18.32 18 -19 18 C-19.66 19.32 -20.32 20.64 -21 22 C-21.66 22 -22.32 22 -23 22 C-23.33 22.99 -23.66 23.98 -24 25 C-24.67578125 23.203125 -24.67578125 23.203125 -25 21 C-23.85546875 19.296875 -23.85546875 19.296875 -22.1875 17.75 C-21.64480469 17.22921875 -21.10210937 16.7084375 -20.54296875 16.171875 C-19 15 -19 15 -17 15 C-16.7525 14.4225 -16.505 13.845 -16.25 13.25 C-14.81700012 10.67060021 -13.21575324 8.93878408 -11 7 C-10.34 7 -9.68 7 -9 7 C-8.71125 5.865625 -8.4225 4.73125 -8.125 3.5625 C-7.75375 2.386875 -7.3825 1.21125 -7 0 C-4.3333581 -1.33332095 -2.83319697 -0.67102033 0 0 Z " fill="#7A71C7" transform="translate(217,398)"/>
<path d="M0 0 C0.33 0 0.66 0 1 0 C1.44632539 27.41124527 1.44632539 27.41124527 -1 40 C-2 41 -2 41 -5.37890625 41.09765625 C-6.77347077 41.09098369 -8.16801743 41.07902532 -9.5625 41.0625 C-10.62887695 41.05573242 -10.62887695 41.05573242 -11.71679688 41.04882812 C-13.47790013 41.03700864 -15.23896036 41.01907263 -17 41 C-17 40.67 -17 40.34 -17 40 C-12.71 39.34 -8.42 38.68 -4 38 C-3.12785559 34.51142237 -2.74156887 31.51532533 -2.5 27.94921875 C-2.4175 26.77552734 -2.335 25.60183594 -2.25 24.39257812 C-2.1675 23.16990234 -2.085 21.94722656 -2 20.6875 C-1.00426522 6.07042458 -1.00426522 6.07042458 0 0 Z " fill="#6153BB" transform="translate(381,269)"/>
<path d="M0 0 C0.66 0.33 1.32 0.66 2 1 C2.30962343 10.28870293 2.30962343 10.28870293 0 13 C-5.7388284 15.94220308 -11.26705376 16.87272118 -17.625 17.6875 C-19.0171875 17.88182617 -19.0171875 17.88182617 -20.4375 18.08007812 C-24.66653575 18.65263382 -28.72597753 19.06694481 -33 19 C-30.53391099 15.97538731 -28.67621035 15.52710518 -24.8515625 15.12109375 C-23.84609375 15.00443359 -22.840625 14.88777344 -21.8046875 14.76757812 C-20.75539063 14.65865234 -19.70609375 14.54972656 -18.625 14.4375 C-16.55400707 14.21322787 -14.48365297 13.98295864 -12.4140625 13.74609375 C-11.4957666 13.64997803 -10.5774707 13.5538623 -9.63134766 13.45483398 C-6.82923001 12.97048205 -4.5413299 12.27779331 -2 11 C-0.96229323 8.37633717 -0.96229323 8.37633717 -0.6875 5.375 C-0.54699219 4.37210937 -0.40648437 3.36921875 -0.26171875 2.3359375 C-0.17535156 1.56507813 -0.08898437 0.79421875 0 0 Z " fill="#635ABE" transform="translate(402,318)"/>
<path d="M0 0 C0.33 0 0.66 0 1 0 C2.08297224 6.73220802 1.96299477 13.1395801 1.625 19.9375 C1.58117187 20.97068359 1.53734375 22.00386719 1.4921875 23.06835938 C1.21787354 29.08421695 0.73543243 35.02305337 0 41 C-0.66 40.67 -1.32 40.34 -2 40 C-2.02900455 36.3958502 -2.04680018 32.79173038 -2.0625 29.1875 C-2.07087891 28.16333984 -2.07925781 27.13917969 -2.08789062 26.08398438 C-2.09111328 25.10107422 -2.09433594 24.11816406 -2.09765625 23.10546875 C-2.10289307 22.19949951 -2.10812988 21.29353027 -2.11352539 20.36010742 C-2 18 -2 18 -1 15 C-0.95542327 12.81295424 -0.9609001 10.62465053 -1 8.4375 C-1.11087191 2.22174381 -1.11087191 2.22174381 0 0 Z " fill="#554AC1" transform="translate(366,78)"/>
<path d="M0 0 C1.5631897 0.00785522 1.5631897 0.00785522 3.15795898 0.01586914 C4.28266602 0.0190918 5.40737305 0.02231445 6.56616211 0.02563477 C7.75016602 0.03401367 8.93416992 0.04239258 10.15405273 0.05102539 C11.34192383 0.05553711 12.52979492 0.06004883 13.75366211 0.06469727 C16.69967499 0.07652864 19.64558954 0.09301252 22.59155273 0.11352539 C22.59155273 0.44352539 22.59155273 0.77352539 22.59155273 1.11352539 C21.22436523 1.30883789 19.85717773 1.50415039 18.48999023 1.69946289 C17.17575073 1.88738403 17.17575073 1.88738403 15.83496094 2.07910156 C13.91175079 2.35361202 11.98840906 2.62720205 10.06494141 2.89990234 C5.85030709 3.49845333 1.63699323 4.0986645 -2.56860352 4.75805664 C-9.24608812 5.78593079 -15.65023906 6.39381974 -22.40844727 6.11352539 C-19.44286795 3.14794608 -15.84166447 3.16750747 -11.84594727 2.55102539 C-7.79816291 1.90982478 -3.76477202 0.17745758 0 0 Z " fill="#5A4FBD" transform="translate(286.408447265625,345.886474609375)"/>
<path d="M0 0 C0.99 0.33 1.98 0.66 3 1 C3 12.55 3 24.1 3 36 C1.515 36.495 1.515 36.495 0 37 C-0.02917228 33.77085248 -0.04685663 30.54173917 -0.0625 27.3125 C-0.07087891 26.40048828 -0.07925781 25.48847656 -0.08789062 24.54882812 C-0.09111328 23.66259766 -0.09433594 22.77636719 -0.09765625 21.86328125 C-0.10289307 21.05157471 -0.10812988 20.23986816 -0.11352539 19.40356445 C0.00710924 16.84948286 0.46850958 14.49758976 1 12 C1.06371368 10.39696373 1.08644214 8.79162328 1.0625 7.1875 C1.05347656 6.39730469 1.04445312 5.60710937 1.03515625 4.79296875 C1.02355469 4.20128906 1.01195312 3.60960937 1 3 C-0.32 2.67 -1.64 2.34 -3 2 C-2.01 1.34 -1.02 0.68 0 0 Z " fill="#4A3AB7" transform="translate(203,333)"/>
<path d="M0 0 C4.08398365 2.33488358 6.89610905 5.06508622 8.375 9.625 C8.49875 10.4603125 8.49875 10.4603125 8.625 11.3125 C3.86852332 9.72700777 3.86852332 9.72700777 1.625 8.3125 C0.1875 5.125 0.1875 5.125 -0.375 2.3125 C-3.675 2.3125 -6.975 2.3125 -10.375 2.3125 C-10.375 1.6525 -10.375 0.9925 -10.375 0.3125 C-12.685 0.9725 -14.995 1.6325 -17.375 2.3125 C-18.035 1.6525 -18.695 0.9925 -19.375 0.3125 C-13.32686214 -2.91317353 -6.16546998 -2.84648801 0 0 Z " fill="#695EC4" transform="translate(274.375,220.6875)"/>
<path d="M0 0 C0.66 0.33 1.32 0.66 2 1 C0 3 -2 5 -4 7 C-4.33 7.99 -4.66 8.98 -5 10 C-8.23306391 11.61653196 -11.45028204 12.39147692 -15 13 C-15 13.66 -15 14.32 -15 15 C-15.99 15.33 -16.98 15.66 -18 16 C-18.66 16.66 -19.32 17.32 -20 18 C-20.66 17.34 -21.32 16.68 -22 16 C-17.25 12 -17.25 12 -15 12 C-14.67 11.01 -14.34 10.02 -14 9 C-11.6015625 6.9921875 -11.6015625 6.9921875 -8.625 4.875 C-7.64789063 4.17117187 -6.67078125 3.46734375 -5.6640625 2.7421875 C-3 1 -3 1 0 0 Z " fill="#4838C9" transform="translate(345,76)"/>
<path d="M0 0 C0 0.66 0 1.32 0 2 C-2.64 2 -5.28 2 -8 2 C-8 2.66 -8 3.32 -8 4 C-12.77233804 5.74156412 -17.44957705 6.72897441 -22.4375 7.5625 C-23.52514648 7.75102539 -23.52514648 7.75102539 -24.63476562 7.94335938 C-29.080278 8.70624605 -33.53214349 9.38191708 -38 10 C-38 9.01 -38 8.02 -38 7 C-36.92685547 6.83564453 -36.92685547 6.83564453 -35.83203125 6.66796875 C-29.21025048 5.61430894 -22.71792521 4.27860695 -16.1953125 2.73046875 C-4.2513369 0 -4.2513369 0 0 0 Z " fill="#574CB3" transform="translate(336,352)"/>
<path d="M0 0 C0 0.33 0 0.66 0 1 C-1.11242065 1.21934204 -1.11242065 1.21934204 -2.24731445 1.44311523 C-5.60277702 2.10589994 -8.95764159 2.77166424 -12.3125 3.4375 C-14.06336914 3.78264648 -14.06336914 3.78264648 -15.84960938 4.13476562 C-16.96787109 4.35712891 -18.08613281 4.57949219 -19.23828125 4.80859375 C-20.26993408 5.01282959 -21.30158691 5.21706543 -22.36450195 5.42749023 C-25.08860686 5.96973851 -25.08860686 5.96973851 -28 7 C-29.64279217 7.11792999 -31.29052694 7.17511674 -32.9375 7.1875 C-33.79214844 7.20167969 -34.64679688 7.21585937 -35.52734375 7.23046875 C-38.15878562 6.98520008 -39.69499081 6.23102555 -42 5 C-35.00129843 3.99079553 -28.00108791 2.9925057 -21 2 C-20.21786133 1.88833496 -19.43572266 1.77666992 -18.62988281 1.66162109 C-16.60804512 1.37416254 -14.58529986 1.09310796 -12.5625 0.8125 C-11.42941406 0.65394531 -10.29632813 0.49539063 -9.12890625 0.33203125 C-6.05915564 0.00627744 -3.08431623 -0.06047679 0 0 Z " fill="#695DC0" transform="translate(341,313)"/>
<path d="M0 0 C0 0.33 0 0.66 0 1 C-0.68924561 1.13575439 -1.37849121 1.27150879 -2.08862305 1.41137695 C-5.28867655 2.04294184 -8.48815942 2.67733347 -11.6875 3.3125 C-12.83041504 3.5388916 -13.97333008 3.7652832 -15.15087891 3.99853516 C-22.0620822 5.37841537 -28.91856901 6.85085574 -35.7421875 8.6171875 C-38 9 -38 9 -41 8 C-37.47066926 4.7083962 -33.73415185 4.17659162 -29.125 3.5 C-27.59985262 3.25776202 -26.07511556 3.01292778 -24.55078125 2.765625 C-23.78846191 2.64251953 -23.02614258 2.51941406 -22.24072266 2.39257812 C-17.80020474 1.61459242 -13.42896258 0.52276451 -9.05078125 -0.546875 C-5.75940928 -1.03573434 -3.23211017 -0.71716987 0 0 Z " fill="#736AC5" transform="translate(261,148)"/>
<path d="M0 0 C0.66 0.66 1.32 1.32 2 2 C0.40443894 3.59556106 -1.41923694 3.27423355 -3.625 3.4375 C-6.92109097 3.72391246 -9.54867058 4.16460118 -12.75 5.125 C-16.27734328 6.07466934 -18.48511062 5.85729009 -22 5 C-22 4.01 -22 3.02 -22 2 C-6.81210856 -0.92275574 -6.81210856 -0.92275574 0 0 Z " fill="#493ACC" transform="translate(303,319)"/>
<path d="M0 0 C0.33 0 0.66 0 1 0 C2.89151702 13.38818427 4.53755996 26.46145295 4 40 C0.8442266 34.61993245 0.94092341 28.32991909 0.3125 22.25 C0.17005859 20.99960938 0.02761719 19.74921875 -0.11914062 18.4609375 C-0.79726967 12.07775264 -1.18363187 6.32329512 0 0 Z " fill="#5246B9" transform="translate(139,194)"/>
<path d="M0 0 C3.3 0 6.6 0 10 0 C9 4 9 4 7.03125 5.1953125 C-1.0034355 8.14632353 -8.38956345 10.36640156 -17 10 C-11.01976183 4.01976183 -1.9149396 4.34989824 6 4 C6 3.34 6 2.68 6 2 C3.03 1.505 3.03 1.505 0 1 C0 0.67 0 0.34 0 0 Z " fill="#4C3FB9" transform="translate(203,116)"/>
<path d="M0 0 C0.33 0.66 0.66 1.32 1 2 C0.34 2 -0.32 2 -1 2 C-1 2.66 -1 3.32 -1 4 C-2.3125 5.4375 -2.3125 5.4375 -4 7 C-4.474375 7.515625 -4.94875 8.03125 -5.4375 8.5625 C-7 10 -7 10 -9.0625 10.9375 C-11.15413093 11.84097548 -11.15413093 11.84097548 -11.9375 13.9375 C-13.3794141 16.73650973 -15.29541626 17.45452358 -18 19 C-19.36984198 20.29579647 -20.7151049 21.61992749 -22 23 C-20.6762458 19.10974896 -19.09531306 16.719351 -16.19140625 13.828125 C-15.44439453 13.08175781 -14.69738281 12.33539063 -13.92773438 11.56640625 C-13.14720703 10.80199219 -12.36667969 10.03757812 -11.5625 9.25 C-10.78583984 8.47011719 -10.00917969 7.69023437 -9.20898438 6.88671875 C-3.40085395 1.13361798 -3.40085395 1.13361798 0 0 Z " fill="#5042B9" transform="translate(227,350)"/>
<path d="M0 0 C0.66 0.99 1.32 1.98 2 3 C-2.54695401 8.11532327 -7.5283701 10.84279003 -14 13 C-14 13.99 -14 14.98 -14 16 C-16.875 16.625 -16.875 16.625 -20 17 C-20.66 16.34 -21.32 15.68 -22 15 C-21.41734375 14.67128906 -20.8346875 14.34257813 -20.234375 14.00390625 C-13.05601349 9.83910217 -6.55591967 5.06901006 0 0 Z " fill="#776CC6" transform="translate(322,93)"/>
<path d="M0 0 C1.56401559 4.69204678 0.96087686 9.42683442 0.83984375 14.3359375 C0.99021694 17.77618269 1.49517112 19.94313192 3 23 C3.66 23 4.32 23 5 23 C5.33 23.99 5.66 24.98 6 26 C3 26 3 26 1.39453125 24.41796875 C-2.93641733 18.31186594 -4.20544067 13.43929097 -3 6 C-1.5 2.3125 -1.5 2.3125 0 0 Z " fill="#6257C0" transform="translate(249,227)"/>
<path d="M0 0 C0.33 0 0.66 0 1 0 C1.05390357 2.93774463 1.0936255 5.87450232 1.125 8.8125 C1.14175781 9.64587891 1.15851563 10.47925781 1.17578125 11.33789062 C1.18222656 12.14033203 1.18867188 12.94277344 1.1953125 13.76953125 C1.20578613 14.50792236 1.21625977 15.24631348 1.22705078 16.00708008 C1 18 1 18 -1 21 C-1.45915507 23.96842658 -1.45915507 23.96842658 -1.625 27.1875 C-1.69976562 28.27417969 -1.77453125 29.36085937 -1.8515625 30.48046875 C-1.90054687 31.31191406 -1.94953125 32.14335937 -2 33 C-2.66 33 -3.32 33 -4 33 C-3.67200625 21.6559403 -3.18010568 10.96036422 0 0 Z " fill="#4639B7" transform="translate(393,178)"/>
<path d="M0 0 C0.495 0.99 0.495 0.99 1 2 C-0.86205078 2.30744141 -0.86205078 2.30744141 -2.76171875 2.62109375 C-4.40365303 2.89318572 -6.04557972 3.16532355 -7.6875 3.4375 C-8.91243164 3.63956055 -8.91243164 3.63956055 -10.16210938 3.84570312 C-14.97047977 4.6427044 -14.97047977 4.6427044 -19.75 5.59375 C-22.31232017 6.05639114 -24.71092984 6.0971876 -27.3125 6.0625 C-28.19550781 6.05347656 -29.07851563 6.04445313 -29.98828125 6.03515625 C-30.65214844 6.02355469 -31.31601562 6.01195312 -32 6 C-28.91368381 4.26530238 -26.17467136 3.55242319 -22.6875 3 C-19.464857 2.46289283 -16.5633332 1.86210522 -13.4375 0.875 C-8.91248517 -0.27682196 -4.64209948 -0.16812433 0 0 Z " fill="#564BAF" transform="translate(406,339)"/>
<path d="M0 0 C-0.33 0.33 -0.66 0.66 -1 1 C0.32 1.66 1.64 2.32 3 3 C-0.41299009 3.8693381 -3.83083808 4.71779224 -7.25 5.5625 C-8.70212891 5.9327832 -8.70212891 5.9327832 -10.18359375 6.31054688 C-11.11816406 6.53935547 -12.05273438 6.76816406 -13.015625 7.00390625 C-13.87446289 7.21861572 -14.73330078 7.4333252 -15.61816406 7.65454102 C-18.09236484 8.0133965 -19.64810343 7.78317203 -22 7 C-21.34 5.68 -20.68 4.36 -20 3 C-19.01 3.33 -18.02 3.66 -17 4 C-15.00038436 4.03920815 -12.99950636 4.04443347 -11 4 C-10.67 3.01 -10.34 2.02 -10 1 C-8.22265625 0.234375 -8.22265625 0.234375 -6.0625 -0.25 C-5.35222656 -0.42015625 -4.64195312 -0.5903125 -3.91015625 -0.765625 C-2 -1 -2 -1 0 0 Z " fill="#5D51C7" transform="translate(150,133)"/>
<path d="M0 0 C0.66 0 1.32 0 2 0 C2.33 2.64 2.66 5.28 3 8 C15.87 8.495 15.87 8.495 29 9 C29 9.33 29 9.66 29 10 C23.74179427 11.07222792 18.65380543 11.18341331 13.3125 11.1875 C12.45849609 11.19974609 11.60449219 11.21199219 10.72460938 11.22460938 C9.49387695 11.22750977 9.49387695 11.22750977 8.23828125 11.23046875 C7.1251355 11.23663208 7.1251355 11.23663208 5.98950195 11.24291992 C4 11 4 11 1 9 C0.48828125 6.8359375 0.48828125 6.8359375 0.3125 4.375 C0.24675781 3.55773437 0.18101562 2.74046875 0.11328125 1.8984375 C0.07589844 1.27195312 0.03851563 0.64546875 0 0 Z " fill="#7269C6" transform="translate(132,359)"/>
<path d="M0 0 C3.3 0 6.6 0 10 0 C10.25 8.625 10.25 8.625 8 12 C7.34 12 6.68 12 6 12 C6 13.98 6 15.96 6 18 C5.34 18.33 4.68 18.66 4 19 C4.3080144 16.37440156 4.62120182 13.74960194 4.9375 11.125 C5.06801758 10.00544922 5.06801758 10.00544922 5.20117188 8.86328125 C5.88671875 3.2265625 5.88671875 3.2265625 7 1 C6.01 1.495 6.01 1.495 5 2 C3.00039988 2.039992 0.99952758 2.04346799 -1 2 C-0.67 1.34 -0.34 0.68 0 0 Z " fill="#5F52C9" transform="translate(170,365)"/>
<path d="M0 0 C0 1.98 0 3.96 0 6 C-0.66 4.68 -1.32 3.36 -2 2 C-2.66 2 -3.32 2 -4 2 C-4.12117188 2.83144531 -4.24234375 3.66289062 -4.3671875 4.51953125 C-4.61855469 6.14955078 -4.61855469 6.14955078 -4.875 7.8125 C-5.03742188 8.89144531 -5.19984375 9.97039062 -5.3671875 11.08203125 C-6 14 -6 14 -8 17 C-8.38499891 18.65549531 -8.72793135 20.3222433 -9 22 C-9.66 22 -10.32 22 -11 22 C-10.48128186 14.34890738 -8.82006109 7.15124926 -6 0 C-3.50907189 -1.24546405 -2.58919267 -0.7767578 0 0 Z " fill="#5A4EB5" transform="translate(426,282)"/>
<path d="M0 0 C2.05078125 0.03255208 4.1015625 0.06510417 6.15234375 0.09765625 C5.51296875 0.40703125 4.87359375 0.71640625 4.21484375 1.03515625 C2.21623554 1.93217255 2.21623554 1.93217255 1.15234375 3.09765625 C1.43317173 5.4378894 1.77702929 7.77070661 2.15234375 10.09765625 C2.48567708 12.43098958 2.81901042 14.76432292 3.15234375 17.09765625 C2.16234375 17.42765625 1.17234375 17.75765625 0.15234375 18.09765625 C-1.66716842 12.51781894 -2.70107003 6.98365667 -2.84765625 1.09765625 C-1.84765625 0.09765625 -1.84765625 0.09765625 0 0 Z " fill="#4D3DDA" transform="translate(84.84765625,131.90234375)"/>
<path d="M0 0 C0 0.66 0 1.32 0 2 C-7.02057121 3.09266243 -13.90468303 3.11532882 -21 3.0625 C-22.15628906 3.05798828 -23.31257812 3.05347656 -24.50390625 3.04882812 C-27.33599225 3.03712529 -30.16796811 3.02072996 -33 3 C-33 2.67 -33 2.34 -33 2 C-21.96485916 0.76776094 -11.11856481 -0.36520833 0 0 Z " fill="#6C63C3" transform="translate(202,116)"/>
<path d="M0 0 C0.33 0 0.66 0 1 0 C3.15908873 6.00754078 3.08010645 11.11607144 2.625 17.4375 C2.56828125 18.35982422 2.5115625 19.28214844 2.453125 20.23242188 C2.31280733 22.48919779 2.16152895 24.74465997 2 27 C1.67 27 1.34 27 1 27 C0.49389097 23.77176021 -0.00379907 20.54227635 -0.5 17.3125 C-0.71462891 15.94448242 -0.71462891 15.94448242 -0.93359375 14.54882812 C-1.06894531 13.66259766 -1.20429687 12.77636719 -1.34375 11.86328125 C-1.46943359 11.05157471 -1.59511719 10.23986816 -1.72460938 9.40356445 C-2.01346439 6.88248499 -2.1812186 4.533596 -2 2 C-1.34 1.34 -0.68 0.68 0 0 Z " fill="#665BC6" transform="translate(119,239)"/>
<path d="M0 0 C0.66 0 1.32 0 2 0 C2.21120322 7.19459857 1.60752499 14.02087575 0.5 21.125 C0.28537109 22.55972656 0.28537109 22.55972656 0.06640625 24.0234375 C-0.28258145 26.35002216 -0.63812333 28.67539156 -1 31 C-1.33 31 -1.66 31 -2 31 C-2.24965165 20.445283 -1.67901457 10.43387625 0 0 Z " fill="#5F58BA" transform="translate(418,178)"/>
<path d="M0 0 C0.98484375 0.00902344 1.9696875 0.01804688 2.984375 0.02734375 C4.10585937 0.04474609 4.10585937 0.04474609 5.25 0.0625 C0.43128921 2.70517727 -4.73154156 3.54205983 -10.0625 4.6875 C-11.59293945 5.03167969 -11.59293945 5.03167969 -13.15429688 5.3828125 C-18.46444553 6.53614795 -23.31570552 7.35375979 -28.75 7.0625 C-28.75 6.7325 -28.75 6.4025 -28.75 6.0625 C-27.1 6.0625 -25.45 6.0625 -23.75 6.0625 C-23.75 5.4025 -23.75 4.7425 -23.75 4.0625 C-20.59493858 3.12630187 -17.78413498 2.9567877 -14.5 3 C-13.60796875 3.00902344 -12.7159375 3.01804688 -11.796875 3.02734375 C-11.12140625 3.03894531 -10.4459375 3.05054688 -9.75 3.0625 C-9.75 2.4025 -9.75 1.7425 -9.75 1.0625 C-6.43929162 0.06140485 -3.44915231 -0.04106134 0 0 Z " fill="#7368C4" transform="translate(202.75,158.9375)"/>
<path d="M0 0 C-2.75078884 0.91692961 -4.35948913 1.10886083 -7.1875 1.0625 C-9.0746875 1.0315625 -9.0746875 1.0315625 -11 1 C-11 1.99 -11 2.98 -11 4 C-12.55966592 4.36644578 -14.12292651 4.71760862 -15.6875 5.0625 C-16.55761719 5.25972656 -17.42773438 5.45695313 -18.32421875 5.66015625 C-21.16001276 6.02032279 -23.24789982 5.70909969 -26 5 C-25 3 -25 3 -23.0222168 2.28222656 C-20.24709955 1.59022465 -17.47076885 0.90856593 -14.6875 0.25 C-13.24213867 -0.11931641 -13.24213867 -0.11931641 -11.76757812 -0.49609375 C-10.83751953 -0.71910156 -9.90746094 -0.94210938 -8.94921875 -1.171875 C-8.09674561 -1.3790918 -7.24427246 -1.58630859 -6.3659668 -1.79980469 C-3.60206278 -2.03367129 -2.32408688 -1.44580018 0 0 Z " fill="#5C4EC1" transform="translate(143,147)"/>
<path d="M0 0 C-2.125 2.0625 -2.125 2.0625 -5 4 C-8.3125 3.75 -8.3125 3.75 -11 3 C-11.33 3.99 -11.66 4.98 -12 6 C-12.66 6 -13.32 6 -14 6 C-14.33 6.99 -14.66 7.98 -15 9 C-15.66 8.34 -16.32 7.68 -17 7 C-18.98 7.99 -18.98 7.99 -21 9 C-20.67 8.01 -20.34 7.02 -20 6 C-19.34 6 -18.68 6 -18 6 C-17.67 5.01 -17.34 4.02 -17 3 C-11.33057151 -0.25690573 -6.43895834 -0.34980257 0 0 Z " fill="#6A5FC9" transform="translate(324,219)"/>
<path d="M0 0 C0.33 0 0.66 0 1 0 C0.28641674 9.09898422 -0.60921691 18.1732854 -1.5625 27.25 C-1.70258735 28.59243609 -1.84256191 29.93488395 -1.98242188 31.27734375 C-2.32051204 34.51834604 -2.65972518 37.75922647 -3 41 C-3.33 41 -3.66 41 -4 41 C-4.57050562 12.79166667 -4.57050562 12.79166667 0 0 Z " fill="#7362BF" transform="translate(414,225)"/>
<path d="M0 0 C1.93166016 0.01740234 1.93166016 0.01740234 3.90234375 0.03515625 C5.19269531 0.04417969 6.48304688 0.05320312 7.8125 0.0625 C8.81152344 0.07410156 9.81054688 0.08570313 10.83984375 0.09765625 C10.83984375 0.75765625 10.83984375 1.41765625 10.83984375 2.09765625 C1.11072927 3.49645063 -8.30199374 4.40150372 -18.16015625 4.09765625 C-14.87026569 1.90439588 -13.3930723 1.7743674 -9.53515625 1.53515625 C-5.88227643 1.30025978 -3.43552867 0.1061659 0 0 Z " fill="#6D64C0" transform="translate(398.16015625,354.90234375)"/>
<path d="M0 0 C1 3 1 3 -0.25 5.5625 C-2 8 -2 8 -5 10 C-5.99 9.34 -6.98 8.68 -8 8 C-8.33 8.99 -8.66 9.98 -9 11 C-10.32 10.34 -11.64 9.68 -13 9 C-12.01 8.67 -11.02 8.34 -10 8 C-9.67 7.01 -9.34 6.02 -9 5 C-6.25391752 2.54814064 -3.44527661 1.24412767 0 0 Z " fill="#604FCB" transform="translate(360,64)"/>
<path d="M0 0 C0.33 1.32 0.66 2.64 1 4 C1.58523438 3.9278125 2.17046875 3.855625 2.7734375 3.78125 C11.84940605 2.80006421 20.88534743 2.90975592 30 3 C30 3.33 30 3.66 30 4 C9.46808511 6.38297872 9.46808511 6.38297872 0 6 C-0.66 4.68 -1.32 3.36 -2 2 C-1.34 1.34 -0.68 0.68 0 0 Z " fill="#7C75C3" transform="translate(296,361)"/>
<path d="M0 0 C0.66 0.33 1.32 0.66 2 1 C4.37402501 1.07116382 6.75000677 1.08409085 9.125 1.0625 C10.40632813 1.05347656 11.68765625 1.04445313 13.0078125 1.03515625 C14.48894531 1.01775391 14.48894531 1.01775391 16 1 C12.89951812 2.7289746 10.04775326 3.5445892 6.5625 4.1875 C5.63566406 4.36667969 4.70882813 4.54585938 3.75390625 4.73046875 C0.87867382 5.01187448 -1.23094859 4.79252161 -4 4 C-5.8125 2.4375 -5.8125 2.4375 -7 1 C-4.50564175 -0.24717912 -2.76297351 -0.13814868 0 0 Z " fill="#5D52CB" transform="translate(334,338)"/>
<path d="M0 0 C0.33 0 0.66 0 1 0 C1.10849626 10.06604235 0.9767249 19.97112823 0 30 C-4.25678779 23.61481831 -2.70480964 17.29967669 -1.5625 10.125 C-1.41490234 9.15046875 -1.26730469 8.1759375 -1.11523438 7.171875 C-0.75174111 4.77985481 -0.37978257 2.38947858 0 0 Z " fill="#6358C0" transform="translate(386,226)"/>
<path d="M0 0 C0.33 0.99 0.66 1.98 1 3 C-2.59844131 9.16875654 -5.98813194 13.01238386 -13 15 C-15.72614973 15.22876781 -18.25647012 15.14439631 -21 15 C-21 14.34 -21 13.68 -21 13 C-19.515 12.87625 -19.515 12.87625 -18 12.75 C-11.28783872 11.73300587 -6.60050862 9.20126441 -2.5 3.75 C-1.65004798 2.51124014 -0.81052424 1.26490905 0 0 Z " fill="#7166C3" transform="translate(336,242)"/>
<path d="M0 0 C0.33 0 0.66 0 1 0 C1.93079856 5.11609136 1.92049964 9.42095575 1.1875 14.5625 C0.93033203 16.45162109 0.93033203 16.45162109 0.66796875 18.37890625 C0.0478607 21.74054462 -0.82921267 24.79391993 -2 28 C-2.33 28 -2.66 28 -3 28 C-3.56081859 18.38299968 -1.84809149 9.38346453 0 0 Z " fill="#473CB8" transform="translate(415,203)"/>
<path d="M0 0 C0.33 0 0.66 0 1 0 C1.50723149 3.85325057 2.00448199 7.70772703 2.5 11.5625 C2.64308594 12.64853516 2.78617188 13.73457031 2.93359375 14.85351562 C3.62631236 20.27981138 4.18838153 25.52908631 4 31 C3.67 31 3.34 31 3 31 C-3.40849673 6.81699346 -3.40849673 6.81699346 0 0 Z " fill="#7362C3" transform="translate(153,302)"/>
<path d="M0 0 C0.33 0 0.66 0 1 0 C1 7.59 1 15.18 1 23 C0.34 23.33 -0.32 23.66 -1 24 C-3.26025725 17.21922825 -2.21720707 8.97264296 -1 2 C-0.67 1.34 -0.34 0.68 0 0 Z " fill="#6156BF" transform="translate(172,414)"/>
<path d="M0 0 C1.4540625 0.0309375 1.4540625 0.0309375 2.9375 0.0625 C2.37008982 3.35347902 1.5476795 4.96503433 -1.0625 7.0625 C-3.32421875 7.57421875 -3.32421875 7.57421875 -5.75 7.75 C-6.55824219 7.81574219 -7.36648437 7.88148438 -8.19921875 7.94921875 C-9.12154297 8.00529297 -9.12154297 8.00529297 -10.0625 8.0625 C-9.08383662 6.91623678 -8.10455413 5.77050212 -7.125 4.625 C-6.57972656 3.98691406 -6.03445312 3.34882813 -5.47265625 2.69140625 C-3.19920785 0.06528996 -3.19920785 0.06528996 0 0 Z " fill="#4C3CD1" transform="translate(235.0625,342.9375)"/>
<path d="M0 0 C0 0.66 0 1.32 0 2 C-0.86951294 2.12846313 -0.86951294 2.12846313 -1.7565918 2.25952148 C-4.40042275 2.65087717 -7.04396196 3.04417081 -9.6875 3.4375 C-10.59951172 3.57220703 -11.51152344 3.70691406 -12.45117188 3.84570312 C-13.33740234 3.97783203 -14.22363281 4.10996094 -15.13671875 4.24609375 C-15.94842529 4.36654053 -16.76013184 4.4869873 -17.59643555 4.61108398 C-20.04205912 4.9670276 -20.04205912 4.9670276 -22.55395508 5.67211914 C-25.41705025 6.05590363 -26.5945273 5.51455688 -29 4 C-25.66909377 3.32081305 -22.33495832 2.65897708 -19 2 C-18.06542969 1.80921875 -17.13085938 1.6184375 -16.16796875 1.421875 C-10.66582872 0.3445329 -5.60566572 -0.21153456 0 0 Z " fill="#7066C2" transform="translate(281,322)"/>
<path d="M0 0 C0.33 0 0.66 0 1 0 C1.20638953 25.76376337 1.20638953 25.76376337 0 38 C-0.33 38 -0.66 38 -1 38 C-1.19555932 35.27119539 -1.38170447 32.54228931 -1.5625 29.8125 C-1.61857422 29.04357422 -1.67464844 28.27464844 -1.73242188 27.48242188 C-1.99468153 23.4086553 -1.91155852 20.00072904 -1 16 C-0.73783959 13.23347041 -0.5887484 10.4620404 -0.4375 7.6875 C-0.39431641 6.94693359 -0.35113281 6.20636719 -0.30664062 5.44335938 C-0.20129568 3.62908536 -0.10021684 1.8145645 0 0 Z " fill="#786ECC" transform="translate(425,296)"/>
<path d="M0 0 C0 0.33 0 0.66 0 1 C-22.59489033 3.38776806 -22.59489033 3.38776806 -33 3 C-33 2.67 -33 2.34 -33 2 C-29.37763325 1.45967948 -25.75190038 0.94642168 -22.125 0.4375 C-21.11179688 0.28603516 -20.09859375 0.13457031 -19.0546875 -0.02148438 C-12.49183266 -0.92598039 -6.55334966 -1.00198845 0 0 Z " fill="#6B5DBE" transform="translate(173,120)"/>
<path d="M0 0 C0.33 0 0.66 0 1 0 C1 1.98 1 3.96 1 6 C1.50015625 5.83628906 2.0003125 5.67257813 2.515625 5.50390625 C5.9263468 4.8121089 9.28735757 4.89495335 12.75 4.9375 C13.44738281 4.94201172 14.14476562 4.94652344 14.86328125 4.95117188 C16.57555803 4.9628998 18.28779033 4.98083347 20 5 C19.360625 5.309375 18.72125 5.61875 18.0625 5.9375 C16.06389179 6.8345163 16.06389179 6.8345163 15 8 C13.23146708 8.09938863 11.45881725 8.12969223 9.6875 8.125 C8.72199219 8.12757813 7.75648438 8.13015625 6.76171875 8.1328125 C4.33856295 8.01628167 2.31355031 7.69241648 0 7 C0 4.69 0 2.38 0 0 Z " fill="#5F50C6" transform="translate(364,120)"/>
<path d="M0 0 C0 0.33 0 0.66 0 1 C-2.64 1 -5.28 1 -8 1 C-8 1.66 -8 2.32 -8 3 C-9.58086048 3.36504603 -11.16483907 3.71660506 -12.75 4.0625 C-13.63171875 4.25972656 -14.5134375 4.45695312 -15.421875 4.66015625 C-18.01413902 5.00186378 -19.57932392 4.9540953 -22 4 C-22.33 3.34 -22.66 2.68 -23 2 C-15.2472493 0.48462814 -7.89957062 -0.27990605 0 0 Z " fill="#7164C5" transform="translate(364,310)"/>
<path d="M0 0 C0.33 0 0.66 0 1 0 C1.10402152 6.44283279 0.73459309 12.66459122 0 19.0625 C-0.09539062 19.92810547 -0.19078125 20.79371094 -0.2890625 21.68554688 C-0.52169264 23.79084969 -0.76021969 25.89549956 -1 28 C-1.33 28 -1.66 28 -2 28 C-2.7422607 21.14836275 -3.28323887 14.80116601 -2 8 C-1.67 7.67 -1.34 7.34 -1 7 C-0.63239269 4.67182036 -0.29758419 2.3381615 0 0 Z " fill="#6A5FC1" transform="translate(407,285)"/>
<path d="M0 0 C0 0.33 0 0.66 0 1 C-4.26616316 2.13764351 -7.56486311 3 -12 3 C-12.33 3.99 -12.66 4.98 -13 6 C-13.66 6 -14.32 6 -15 6 C-15 5.34 -15 4.68 -15 4 C-16.65 3.67 -18.3 3.34 -20 3 C-13.8453619 -0.36094292 -6.85109597 -1.80291999 0 0 Z " fill="#6153C2" transform="translate(192,136)"/>
<path d="M0 0 C0.66 0 1.32 0 2 0 C1.40546697 15.74487472 1.40546697 15.74487472 -2 23 C-3.49260414 18.97417334 -2.69826933 15.07322873 -2.125 10.9375 C-1.98771484 9.85758789 -1.98771484 9.85758789 -1.84765625 8.75585938 C-1.44605829 5.70993685 -0.97383485 2.92150456 0 0 Z " fill="#6861C5" transform="translate(394,162)"/>
<path d="M0 0 C2.79464545 2.79464545 2.4365081 4.84933905 2.6875 8.75 C2.77386719 9.96171875 2.86023438 11.1734375 2.94921875 12.421875 C2.99677072 15.77246026 2.66805247 18.725036 2 22 C1.67 22 1.34 22 1 22 C0.63619983 18.70932284 0.28560207 15.41737181 -0.0625 12.125 C-0.16626953 11.18785156 -0.27003906 10.25070313 -0.37695312 9.28515625 C-0.47041016 8.38925781 -0.56386719 7.49335938 -0.66015625 6.5703125 C-0.74918213 5.74289551 -0.83820801 4.91547852 -0.92993164 4.06298828 C-1 2 -1 2 0 0 Z " fill="#6B60C0" transform="translate(111,182)"/>
<path d="M0 0 C0.08333357 4.8333472 -0.04738513 9.23692563 -1 14 C-1.99 14 -2.98 14 -4 14 C-3.67 9.71 -3.34 5.42 -3 1 C-4.32 0.67 -5.64 0.34 -7 0 C-3.98968256 -0.93423645 -3.13349732 -1.04449911 0 0 Z " fill="#4133B6" transform="translate(398,148)"/>
<path d="M0 0 C4.0993999 6.14909985 3.11627335 13.85564843 3 21 C2.34 20.67 1.68 20.34 1 20 C-0.25857557 15.79683254 -0.11656948 11.53385395 -0.0625 7.1875 C-0.05798828 6.49462891 -0.05347656 5.80175781 -0.04882812 5.08789062 C-0.03713156 3.39188932 -0.01919924 1.69593297 0 0 Z " fill="#4D40B4" transform="translate(116,221)"/>
<path d="M0 0 C2.30777688 3.46166532 2.6483944 5.84228471 3.25 9.9375 C3.44078125 11.16339844 3.6315625 12.38929688 3.828125 13.65234375 C3.99742562 16.94985815 3.80636041 18.31067984 2 21 C0.13867327 16.29538677 -0.2509496 12.1242304 -0.125 7.125 C-0.11146484 6.09246094 -0.11146484 6.09246094 -0.09765625 5.0390625 C-0.07432513 3.35922162 -0.03846326 1.67956254 0 0 Z " fill="#493EAF" transform="translate(113,198)"/>
<path d="M0 0 C0 0.66 0 1.32 0 2 C-2.24743045 2.53181175 -4.49807102 3.05007126 -6.75 3.5625 C-8.62945312 3.99755859 -8.62945312 3.99755859 -10.546875 4.44140625 C-13.59473748 4.93444283 -15.17641828 5.07666879 -18 4 C-17.67 3.34 -17.34 2.68 -17 2 C-14.56640625 1.40234375 -14.56640625 1.40234375 -11.5625 0.9375 C-1.93677015 -0.58103105 -1.93677015 -0.58103105 0 0 Z " fill="#5D51BF" transform="translate(301,138)"/>
<path d="M0 0 C0.33 0 0.66 0 1 0 C1.10920422 7.74136601 0.97159933 15.31395526 0 23 C-3.25289184 17.5914219 -2.71707125 10.70280756 -1.546875 4.66015625 C-1.09638158 3.08664709 -0.55934011 1.53818531 0 0 Z " fill="#4034B9" transform="translate(176,377)"/>
<path d="M0 0 C0 0.99 0 1.98 0 3 C-4.83592913 6.22395275 -9.95716249 5.28671404 -15.5625 4.5 C-16.7690625 4.2525 -16.7690625 4.2525 -18 4 C-18 3.67 -18 3.34 -18 3 C-15.3754034 2.49779928 -12.75036631 1.99814643 -10.125 1.5 C-9.37863281 1.35691406 -8.63226563 1.21382813 -7.86328125 1.06640625 C-2.2265625 0 -2.2265625 0 0 0 Z " fill="#5447BE" transform="translate(361,347)"/>
<path d="M0 0 C1.45882975 2.7611327 2.52247362 5.45461739 3.4375 8.4375 C4.57313889 11.96029817 6.00614011 14.8667916 8 18 C8 18.66 8 19.32 8 20 C7.34 20 6.68 20 6 20 C0.72729748 14.39775357 -0.24199076 9.18902856 -0.0703125 1.7578125 C-0.04710937 1.17773438 -0.02390625 0.59765625 0 0 Z " fill="#6A5EC2" transform="translate(300,233)"/>
<path d="M0 0 C-0.99 0.495 -0.99 0.495 -2 1 C-2 1.66 -2 2.32 -2 3 C-8.6 3 -15.2 3 -22 3 C-22 2.67 -22 2.34 -22 2 C-19.64655194 1.66076424 -17.2924516 1.32849466 -14.9375 1 C-14.28072266 0.90460938 -13.62394531 0.80921875 -12.94726562 0.7109375 C-8.59861237 0.11112326 -4.38670929 -0.09127093 0 0 Z " fill="#766CC8" transform="translate(202,334)"/>
<path d="M0 0 C0 0.66 0 1.32 0 2 C-2.64 2.33 -5.28 2.66 -8 3 C-8 2.34 -8 1.68 -8 1 C-10.31 1.66 -12.62 2.32 -15 3 C-15.66 2.34 -16.32 1.68 -17 1 C-12.21302585 -1.55305288 -4.98229113 -2.49114557 0 0 Z " fill="#6152C0" transform="translate(272,220)"/>
<path d="M0 0 C0 0.33 0 0.66 0 1 C-15.74487472 4.44419134 -15.74487472 4.44419134 -23 4 C-19.65401047 1.76934031 -17.10260321 1.16723499 -13.1875 0.3125 C-11.98480469 0.04050781 -10.78210938 -0.23148438 -9.54296875 -0.51171875 C-6.02995602 -0.99587155 -3.43610634 -0.78404264 0 0 Z " fill="#655CBC" transform="translate(261,148)"/>
<path d="M0 0 C0.33 0 0.66 0 1 0 C1.45251397 21.82122905 1.45251397 21.82122905 -2 27 C-2.05845196 23.62507371 -2.09374742 20.25027913 -2.125 16.875 C-2.14175781 15.92367188 -2.15851563 14.97234375 -2.17578125 13.9921875 C-2.21104528 8.91416745 -2.03333617 4.75512475 0 0 Z " fill="#4134B3" transform="translate(410,245)"/>
<path d="M0 0 C0 0.99 0 1.98 0 3 C-2.83269666 4.41634833 -5.47466438 4.3463005 -8.625 4.5625 C-9.81351563 4.64628906 -11.00203125 4.73007813 -12.2265625 4.81640625 C-13.14179688 4.87699219 -14.05703125 4.93757812 -15 5 C-15 4.34 -15 3.68 -15 3 C-13.0636296 2.49564306 -11.12585854 1.99666126 -9.1875 1.5 C-8.10855469 1.2215625 -7.02960938 0.943125 -5.91796875 0.65625 C-3 0 -3 0 0 0 Z " fill="#594EC0" transform="translate(233,125)"/>
<path d="M0 0 C0.99 0.66 1.98 1.32 3 2 C-2.80766296 3.5056904 -7.9981863 4.21824777 -14 4 C-13.67 3.01 -13.34 2.02 -13 1 C-10.03 1.495 -10.03 1.495 -7 2 C-7 1.34 -7 0.68 -7 0 C-4.28569464 -1.35715268 -2.88661718 -0.77445827 0 0 Z " fill="#5A4ECB" transform="translate(186,125)"/>
<path d="M0 0 C0.33 0 0.66 0 1 0 C1.06058594 0.99902344 1.12117188 1.99804688 1.18359375 3.02734375 C1.26738281 4.31769531 1.35117188 5.60804688 1.4375 6.9375 C1.51871094 8.22527344 1.59992188 9.51304687 1.68359375 10.83984375 C1.64919188 13.86023957 1.64919188 13.86023957 3 15 C3.07226502 16.85287502 3.0838122 18.70833878 3.0625 20.5625 C3.05347656 21.57441406 3.04445313 22.58632812 3.03515625 23.62890625 C3.02355469 24.41136719 3.01195313 25.19382813 3 26 C2.67 26 2.34 26 2 26 C2 24.02 2 22.04 2 20 C1.34 20 0.68 20 0 20 C0 13.4 0 6.8 0 0 Z " fill="#2E25CF" transform="translate(99,172)"/>
<path d="M0 0 C0.33 0.66 0.66 1.32 1 2 C6.28 2 11.56 2 17 2 C16.67 2.66 16.34 3.32 16 4 C10.39 4 4.78 4 -1 4 C-0.67 2.68 -0.34 1.36 0 0 Z " fill="#6E64C0" transform="translate(334,156)"/>
<path d="M0 0 C3.3 0 6.6 0 10 0 C9.67 1.32 9.34 2.64 9 4 C5.625 5.8125 5.625 5.8125 2 7 C1.01 6.67 0.02 6.34 -1 6 C1.64738916 4.5393715 2.89448334 4 6 4 C6 3.34 6 2.68 6 2 C3.03 1.505 3.03 1.505 0 1 C0 0.67 0 0.34 0 0 Z " fill="#5349AE" transform="translate(203,116)"/>
<path d="M0 0 C-3 2 -3 2 -6 2 C-6 8.6 -6 15.2 -6 22 C-6.33 22 -6.66 22 -7 22 C-7.33 14.74 -7.66 7.48 -8 0 C-4.71023192 -1.09658936 -3.28696233 -0.79953138 0 0 Z " fill="#4235B0" transform="translate(117,153)"/>
<path d="M0 0 C0.33 0.99 0.66 1.98 1 3 C-0.9363704 3.50435694 -2.87414146 4.00333874 -4.8125 4.5 C-5.89144531 4.7784375 -6.97039062 5.056875 -8.08203125 5.34375 C-11 6 -11 6 -14 6 C-14 5.01 -14 4.02 -14 3 C-13.15695312 2.86722656 -12.31390625 2.73445313 -11.4453125 2.59765625 C-10.34960938 2.42105469 -9.25390625 2.24445313 -8.125 2.0625 C-6.48917969 1.80146484 -6.48917969 1.80146484 -4.8203125 1.53515625 C-2.06178454 1.14448841 -2.06178454 1.14448841 0 0 Z " fill="#3931A4" transform="translate(312,356)"/>
<path d="M0 0 C0 0.33 0 0.66 0 1 C-2.64 1 -5.28 1 -8 1 C-8.33 1.99 -8.66 2.98 -9 4 C-13.29 3.34 -17.58 2.68 -22 2 C-22 1.67 -22 1.34 -22 1 C-14.66236293 -0.17402193 -7.41834582 -0.09377123 0 0 Z " fill="#4A3AC9" transform="translate(378,310)"/>
<path d="M0 0 C2 2 2 2 2.25 5.0625 C1.97011899 9.47062587 1.45688292 13.80921332 0 18 C-0.66 18.33 -1.32 18.66 -2 19 C-1.85761163 16.95809019 -1.71092972 14.91647955 -1.5625 12.875 C-1.48128906 11.73804688 -1.40007812 10.60109375 -1.31640625 9.4296875 C-1.02269035 6.2459522 -0.56875687 3.14489093 0 0 Z " fill="#4936BB" transform="translate(407,274)"/>
<path d="M0 0 C-0.99 0.33 -1.98 0.66 -3 1 C-3 1.66 -3 2.32 -3 3 C-6.31070838 4.00109515 -9.30084769 4.10356134 -12.75 4.0625 C-13.73484375 4.05347656 -14.7196875 4.04445312 -15.734375 4.03515625 C-16.48203125 4.02355469 -17.2296875 4.01195312 -18 4 C-12.50312124 1.03343051 -6.25589769 -0.4036063 0 0 Z " fill="#5A4EBC" transform="translate(390,149)"/>
<path d="M0 0 C0 1.65 0 3.3 0 5 C-0.66 5 -1.32 5 -2 5 C-2.33 5.99 -2.66 6.98 -3 8 C-3.99 8 -4.98 8 -6 8 C-6.36458333 3.50347222 -6.36458333 3.50347222 -4.6875 1.1875 C-3 0 -3 0 0 0 Z " fill="#5346CE" transform="translate(192,419)"/>
<path d="M0 0 C1.98 0 3.96 0 6 0 C4.90101298 3.29696105 4.05402613 4.04670589 1.4375 6.1875 C0.79683594 6.71730469 0.15617187 7.24710937 -0.50390625 7.79296875 C-0.99761719 8.19128906 -1.49132812 8.58960938 -2 9 C-3 6 -3 6 -1.5625 2.8125 C-1.046875 1.884375 -0.53125 0.95625 0 0 Z " fill="#6155C8" transform="translate(257,352)"/>
<path d="M0 0 C0.66 0.33 1.32 0.66 2 1 C0.68 3.31 -0.64 5.62 -2 8 C-3.65 8 -5.3 8 -7 8 C-5.08864614 4.46399535 -3.37357234 2.21027154 0 0 Z " fill="#7061C8" transform="translate(201,221)"/>
<path d="M0 0 C0.66 0 1.32 0 2 0 C3.13480527 3.60993172 3.10015767 6.9842327 3.0625 10.75 C3.05347656 11.92046875 3.04445313 13.0909375 3.03515625 14.296875 C3.02355469 15.18890625 3.01195313 16.0809375 3 17 C0.04335518 11.27901246 -0.10755105 6.34551212 0 0 Z " fill="#6A5EC0" transform="translate(84,154)"/>
<path d="M0 0 C0.81210938 0.24556641 0.81210938 0.24556641 1.640625 0.49609375 C4.40222593 1.08590587 6.92818139 1.09609308 9.75 1.0625 C10.73484375 1.05347656 11.7196875 1.04445312 12.734375 1.03515625 C13.48203125 1.02355469 14.2296875 1.01195312 15 1 C15 1.33 15 1.66 15 2 C13.08654673 2.53251766 11.1690705 3.05059483 9.25 3.5625 C8.18265625 3.85253906 7.1153125 4.14257812 6.015625 4.44140625 C3.15664073 4.97098494 1.68402617 4.98370862 -1 4 C-0.67 2.68 -0.34 1.36 0 0 Z " fill="#685DC4" transform="translate(129,136)"/>
<path d="M0 0 C0.57234375 0.23589844 1.1446875 0.47179688 1.734375 0.71484375 C1.734375 2.36484375 1.734375 4.01484375 1.734375 5.71484375 C1.074375 5.71484375 0.414375 5.71484375 -0.265625 5.71484375 C-0.265625 4.72484375 -0.265625 3.73484375 -0.265625 2.71484375 C-1.9053125 3.70484375 -1.9053125 3.70484375 -3.578125 4.71484375 C-6.20270038 6.29949304 -7.0912628 6.71484375 -10.265625 6.71484375 C-9.03009224 5.51229851 -7.77660161 4.32818143 -6.515625 3.15234375 C-5.81953125 2.49105469 -5.1234375 1.82976563 -4.40625 1.1484375 C-2.265625 -0.28515625 -2.265625 -0.28515625 0 0 Z " fill="#7367BB" transform="translate(367.265625,58.28515625)"/>
<path d="M0 0 C-1 2 -1 2 -4.0625 3.125 C-8.09858291 4.19682285 -11.84184728 4.1459001 -16 4 C-16 3.34 -16 2.68 -16 2 C-14.27192682 1.66104344 -12.54248026 1.32908475 -10.8125 1 C-9.84957031 0.814375 -8.88664062 0.62875 -7.89453125 0.4375 C-5.2065794 0.03122388 -2.71228981 -0.07933572 0 0 Z " fill="#695FC1" transform="translate(298,319)"/>
<path d="M0 0 C0.66 0 1.32 0 2 0 C2.93619813 3.15506142 3.1057123 5.96586502 3.0625 9.25 C3.05347656 10.14203125 3.04445312 11.0340625 3.03515625 11.953125 C3.02355469 12.62859375 3.01195312 13.3040625 3 14 C2.01 14.495 2.01 14.495 1 15 C0.67 10.05 0.34 5.1 0 0 Z " fill="#4E42B6" transform="translate(147,267)"/>
<path d="M0 0 C4.62 0 9.24 0 14 0 C11.64651729 2.35348271 10.78533309 2.36468749 7.5625 2.6875 C6.78003906 2.77386719 5.99757813 2.86023438 5.19140625 2.94921875 C3 3 3 3 0 2 C0 1.34 0 0.68 0 0 Z " fill="#7B6EC9" transform="translate(259,255)"/>
<path d="M0 0 C0.66 0.66 1.32 1.32 2 2 C0.02 4.31 -1.96 6.62 -4 9 C-5.32 8.67 -6.64 8.34 -8 8 C-7.67 7.01 -7.34 6.02 -7 5 C-5.33927151 4.31867549 -3.672233 3.65257873 -2 3 C-1.34 2.01 -0.68 1.02 0 0 Z " fill="#4D3FB8" transform="translate(226,245)"/>
<path d="M0 0 C1.125 3.75 1.125 3.75 0 6 C-0.99 6 -1.98 6 -3 6 C-3.66 7.98 -4.32 9.96 -5 12 C-5.33 12 -5.66 12 -6 12 C-6.49065421 5.62149533 -6.49065421 5.62149533 -4.125 2.625 C-2 1 -2 1 0 0 Z " fill="#4639BD" transform="translate(307,225)"/>
<path d="M0 0 C0.66 0.66 1.32 1.32 2 2 C-3.28 2.66 -8.56 3.32 -14 4 C-14 3.34 -14 2.68 -14 2 C-9.16587103 0.42150891 -5.15547167 -0.40435072 0 0 Z " fill="#493DB7" transform="translate(175,139)"/>
<path d="M0 0 C0.66 0.99 1.32 1.98 2 3 C-1.17320782 6.53586014 -3.16743695 8.58578031 -8 9 C-5.89851796 5.01824456 -3.63094642 2.64960955 0 0 Z " fill="#5D50C1" transform="translate(322,93)"/>
<path d="M0 0 C0 0.66 0 1.32 0 2 C-1.27875 2.144375 -2.5575 2.28875 -3.875 2.4375 C-6.25692894 2.70642746 -7.84452691 2.92226346 -10 4 C-10 3.34 -10 2.68 -10 2 C-11.98 2.99 -11.98 2.99 -14 4 C-14.66 3.34 -15.32 2.68 -16 2 C-13.89829344 1.46932659 -11.79352402 0.95077143 -9.6875 0.4375 C-7.92986328 0.00244141 -7.92986328 0.00244141 -6.13671875 -0.44140625 C-3 -1 -3 -1 0 0 Z " fill="#4A39C5" transform="translate(344,314)"/>
<path d="M0 0 C0 0.33 0 0.66 0 1 C-2.08201528 1.50546036 -4.16567067 2.00416835 -6.25 2.5 C-7.41015625 2.7784375 -8.5703125 3.056875 -9.765625 3.34375 C-13 4 -13 4 -17 4 C-17 3.34 -17 2.68 -17 2 C-11.35600642 -0.44064587 -6.02248522 -0.19289099 0 0 Z " fill="#6D66BE" transform="translate(127,141)"/>
<path d="M0 0 C0 0.33 0 0.66 0 1 C-6.46794133 2.51233701 -12.35590042 3.21432579 -19 3 C-12.49363677 -0.41908666 -7.1143317 -1.48215244 0 0 Z " fill="#6F65C4" transform="translate(273,118)"/>
<path d="M0 0 C1.0625 1.875 1.0625 1.875 2 4 C1.67 4.66 1.34 5.32 1 6 C-3.95 6 -8.9 6 -14 6 C-14 5.67 -14 5.34 -14 5 C-9.71 4.34 -5.42 3.68 -1 3 C-0.67 2.01 -0.34 1.02 0 0 Z " fill="#685DC2" transform="translate(378,304)"/>
<path d="M0 0 C0.33 0 0.66 0 1 0 C1.02708567 1.60407328 1.04643483 3.2082785 1.0625 4.8125 C1.07410156 5.70582031 1.08570313 6.59914062 1.09765625 7.51953125 C1 10 1 10 0 13 C-0.66 13 -1.32 13 -2 13 C-2.05391993 11.20866022 -2.09275571 9.41686101 -2.125 7.625 C-2.14820313 6.62726563 -2.17140625 5.62953125 -2.1953125 4.6015625 C-2 2 -2 2 0 0 Z " fill="#5C50C3" transform="translate(229,233)"/>
<path d="M0 0 C1.32 0.33 2.64 0.66 4 1 C2.71283353 2.00578589 1.42011342 3.00446798 0.125 4 C-0.95394531 4.8353125 -0.95394531 4.8353125 -2.0546875 5.6875 C-4 7 -4 7 -6 7 C-6 7.66 -6 8.32 -6 9 C-6.66 8.67 -7.32 8.34 -8 8 C-6.99328314 4.97984943 -6.451644 3.90683422 -4 2 C-2.68 2 -1.36 2 0 2 C0 1.34 0 0.68 0 0 Z " fill="#6B62C1" transform="translate(329,120)"/>
<path d="M0 0 C0.99 0.33 1.98 0.66 3 1 C1.68 1.33 0.36 1.66 -1 2 C-1 2.66 -1 3.32 -1 4 C-2.43333021 4.39063507 -3.87192679 4.76198474 -5.3125 5.125 C-6.51326172 5.43824219 -6.51326172 5.43824219 -7.73828125 5.7578125 C-10 6 -10 6 -13 4 C-12.22914063 3.79503906 -11.45828125 3.59007813 -10.6640625 3.37890625 C-9.66117187 3.10949219 -8.65828125 2.84007813 -7.625 2.5625 C-6.62726563 2.29566406 -5.62953125 2.02882813 -4.6015625 1.75390625 C-2.04582299 1.09815644 -2.04582299 1.09815644 0 0 Z " fill="#6D65BF" transform="translate(298,109)"/>
<path d="M0 0 C0.33 0 0.66 0 1 0 C1 4.29 1 8.58 1 13 C1.33 13 1.66 13 2 13 C1.67 15.31 1.34 17.62 1 20 C-1 18 -1 18 -1.23046875 15.64453125 C-1.14991255 10.33514524 -0.93006067 5.23159127 0 0 Z " fill="#5B4DCE" transform="translate(408,256)"/>
<path d="M0 0 C0.33 0 0.66 0 1 0 C0.75759721 6.81151829 0.45683174 11.68055567 -4 17 C-4.33 15.68 -4.66 14.36 -5 13 C-4.34 13 -3.68 13 -3 13 C-2.86722656 12.39671875 -2.73445313 11.7934375 -2.59765625 11.171875 C-2.42105469 10.37265625 -2.24445313 9.5734375 -2.0625 8.75 C-1.88847656 7.96109375 -1.71445312 7.1721875 -1.53515625 6.359375 C-1.052444 4.23121297 -0.53836822 2.11467158 0 0 Z " fill="#6959B8" transform="translate(283,235)"/>
<path d="M0 0 C3 1 3 1 4 3 C-1.45461169 4.38529821 -6.36718401 5.2396943 -12 5 C-12 4.67 -12 4.34 -12 4 C-11.30132812 3.79503906 -10.60265625 3.59007812 -9.8828125 3.37890625 C-8.97273437 3.10949219 -8.06265625 2.84007812 -7.125 2.5625 C-6.22007812 2.29566406 -5.31515625 2.02882812 -4.3828125 1.75390625 C-2.01724619 1.07386174 -2.01724619 1.07386174 0 0 Z " fill="#756CC8" transform="translate(167,165)"/>
<path d="M0 0 C0 0.66 0 1.32 0 2 C-5.22512279 3.46670113 -9.5814234 4.22577402 -15 4 C-15 3.67 -15 3.34 -15 3 C-13.35 3 -11.7 3 -10 3 C-10 2.34 -10 1.68 -10 1 C-6.61981469 -0.04005702 -3.5219721 -0.08004482 0 0 Z " fill="#685BBF" transform="translate(189,162)"/>
<path d="M0 0 C0 0.66 0 1.32 0 2 C-5.48675196 3.86783046 -10.22192976 4.2358396 -16 4 C-13.17486464 2.46837764 -10.57754511 1.54445124 -7.4375 0.875 C-6.67308594 0.70742187 -5.90867188 0.53984375 -5.12109375 0.3671875 C-3 0 -3 0 0 0 Z " fill="#6D63C4" transform="translate(161,141)"/>
<path d="M0 0 C-4.17045858 2.78030572 -7.98663274 3.29986321 -12.9375 2.5625 C-13.618125 2.376875 -14.29875 2.19125 -15 2 C-15 1.67 -15 1.34 -15 1 C-9.69276568 -0.42705634 -5.46108889 -1.4002792 0 0 Z " fill="#5F56C1" transform="translate(287,115)"/>
<path d="M0 0 C0.33 0 0.66 0 1 0 C2.12862175 5.36095333 2.09688221 10.55306686 2 16 C1.34 16.33 0.68 16.66 0 17 C-0.89316269 11.06390334 -0.97040422 5.93024803 0 0 Z " fill="#645BBE" transform="translate(139,194)"/>
<path d="M0 0 C2.19218189 4.38436379 1.15774649 10.36901402 0 15 C-1.72262035 12.00592177 -2.27306023 9.82250407 -2.25 6.375 C-2.25515625 5.59898437 -2.2603125 4.82296875 -2.265625 4.0234375 C-2 2 -2 2 0 0 Z " fill="#3C30C4" transform="translate(137,170)"/>
<path d="M0 0 C1.39456452 0.00667256 2.78911118 0.01863093 4.18359375 0.03515625 C4.89451172 0.03966797 5.60542969 0.04417969 6.33789062 0.04882812 C8.09899388 0.06064761 9.86005411 0.07858362 11.62109375 0.09765625 C11.62109375 0.42765625 11.62109375 0.75765625 11.62109375 1.09765625 C9.51960364 1.48737624 7.41474555 1.85897102 5.30859375 2.22265625 C4.13683594 2.43148437 2.96507812 2.6403125 1.7578125 2.85546875 C-1.37890625 3.09765625 -1.37890625 3.09765625 -4.37890625 1.09765625 C-3.37890625 0.09765625 -3.37890625 0.09765625 0 0 Z " fill="#6D62C5" transform="translate(366.37890625,152.90234375)"/>
<path d="M0 0 C0 0.66 0 1.32 0 2 C-4.96073422 3.32286246 -9.91111512 3.08893197 -15 3 C-9.94813947 0.37814833 -5.68917445 -0.13230638 0 0 Z " fill="#6056BE" transform="translate(389,342)"/>
<path d="M0 0 C0.33 0 0.66 0 1 0 C1.53251766 1.91345327 2.05059483 3.8309295 2.5625 5.75 C2.85253906 6.81734375 3.14257812 7.8846875 3.44140625 8.984375 C3.97098494 11.84335927 3.98370862 13.31597383 3 16 C-0.39366878 10.62669111 -0.32712342 6.13053511 0 0 Z " fill="#4839B3" transform="translate(91,187)"/>
<path d="M0 0 C-0.33 0.66 -0.66 1.32 -1 2 C-3.72265625 2.6328125 -3.72265625 2.6328125 -7.0625 3.125 C-8.16722656 3.29257813 -9.27195312 3.46015625 -10.41015625 3.6328125 C-11.69212891 3.81457031 -11.69212891 3.81457031 -13 4 C-12.67 3.01 -12.34 2.02 -12 1 C-8.32433144 -0.61729417 -3.92760325 -0.06546005 0 0 Z " fill="#6F62BC" transform="translate(276,144)"/>
<path d="M0 0 C2.05078125 0.03255208 4.1015625 0.06510417 6.15234375 0.09765625 C5.59546875 0.32453125 5.03859375 0.55140625 4.46484375 0.78515625 C1.51987691 2.45662391 -0.52922169 4.65041977 -2.84765625 7.09765625 C-2.89019981 5.09810879 -2.88846408 3.09723989 -2.84765625 1.09765625 C-1.84765625 0.09765625 -1.84765625 0.09765625 0 0 Z " fill="#4839B7" transform="translate(84.84765625,131.90234375)"/>
<path d="M0 0 C0 0.99 0 1.98 0 3 C-4.29 3 -8.58 3 -13 3 C-8.29785627 0.64892813 -5.22704461 0 0 0 Z " fill="#7569C7" transform="translate(98,129)"/>
<path d="M0 0 C-0.33 0.66 -0.66 1.32 -1 2 C-1.66 2 -2.32 2 -3 2 C-3.66 3.32 -4.32 4.64 -5 6 C-5.66 5.34 -6.32 4.68 -7 4 C-7 2.68 -7 1.36 -7 0 C-4.3333581 -1.33332095 -2.83319697 -0.67102033 0 0 Z " fill="#7065D5" transform="translate(217,398)"/>
<path d="M0 0 C0.33 0.99 0.66 1.98 1 3 C-0.62339805 4.70884005 -2.29319053 6.37446717 -4 8 C-4.66 8 -5.32 8 -6 8 C-6.33 8.99 -6.66 9.98 -7 11 C-7.66 10.34 -8.32 9.68 -9 9 C-6.03 6.03 -3.06 3.06 0 0 Z " fill="#574BB9" transform="translate(236,376)"/>
<path d="M0 0 C-3.11910856 1.79275866 -5.67682428 2.34290718 -9.25 2.625 C-10.14203125 2.69976562 -11.0340625 2.77453125 -11.953125 2.8515625 C-12.62859375 2.90054688 -13.3040625 2.94953125 -14 3 C-12.68 2.67 -11.36 2.34 -10 2 C-10 1.34 -10 0.68 -10 0 C-6.30581799 -1.231394 -3.7943739 -0.64432764 0 0 Z " fill="#6E63C1" transform="translate(170,131)"/>
<path d="M0 0 C0 0.99 0 1.98 0 3 C0.3062434 4.33981486 0.63451555 5.67511887 1 7 C-1.64 7.33 -4.28 7.66 -7 8 C-6.02133662 6.85373678 -5.04205413 5.70800212 -4.0625 4.5625 C-3.51722656 3.92441406 -2.97195312 3.28632813 -2.41015625 2.62890625 C-1.63204305 1.73008851 -0.84063472 0.84063472 0 0 Z " fill="#8278D3" transform="translate(232,343)"/>
<path d="M0 0 C0.66 0 1.32 0 2 0 C2 2.97 2 5.94 2 9 C0.68 8.67 -0.64 8.34 -2 8 C-1.34 5.36 -0.68 2.72 0 0 Z " fill="#5E50C2" transform="translate(414,305)"/>
<path d="M0 0 C0.33 0.66 0.66 1.32 1 2 C-2.17320782 5.53586014 -4.16743695 7.58578031 -9 8 C-6.14723863 5.06799526 -3.34920216 2.35684596 0 0 Z " fill="#7E74C4" transform="translate(342,77)"/>
<path d="M0 0 C3.96 0 7.92 0 12 0 C9.60236815 2.39763185 8.66726502 2.34280586 5.375 2.625 C4.55773437 2.69976562 3.74046875 2.77453125 2.8984375 2.8515625 C2.27195313 2.90054687 1.64546875 2.94953125 1 3 C0.67 2.01 0.34 1.02 0 0 Z " fill="#5046B6" transform="translate(173,337)"/>
<path d="M0 0 C-2.75078884 0.91692961 -4.35948913 1.10886083 -7.1875 1.0625 C-9.0746875 1.0315625 -9.0746875 1.0315625 -11 1 C-11.33 1.66 -11.66 2.32 -12 3 C-12.66 2.34 -13.32 1.68 -14 1 C-12.42298018 0.44021816 -10.83800758 -0.09719401 -9.25 -0.625 C-7.92742187 -1.07746094 -7.92742187 -1.07746094 -6.578125 -1.5390625 C-3.58982529 -2.07333427 -2.50076998 -1.62433191 0 0 Z " fill="#7167C3" transform="translate(143,147)"/>
<path d="M0 0 C0 0.99 0 1.98 0 3 C-3.63 2.67 -7.26 2.34 -11 2 C-11 1.67 -11 1.34 -11 1 C-7.26562152 0.12132271 -3.83225427 -0.08912219 0 0 Z " fill="#655ABC" transform="translate(140,123)"/>
<path d="M0 0 C5.94 0 11.88 0 18 0 C17.01 0.99 16.02 1.98 15 3 C14.34 2.67 13.68 2.34 13 2 C10.795636 1.77049681 8.58607827 1.58924067 6.375 1.4375 C5.18648437 1.35371094 3.99796875 1.26992187 2.7734375 1.18359375 C1.40058594 1.09271484 1.40058594 1.09271484 0 1 C0 0.67 0 0.34 0 0 Z " fill="#4938C4" transform="translate(169,119)"/>
<path d="M0 0 C0.66 0.33 1.32 0.66 2 1 C2 3.64 2 6.28 2 9 C1.01 9.33 0.02 9.66 -1 10 C-0.67 6.7 -0.34 3.4 0 0 Z " fill="#5A4FBA" transform="translate(402,318)"/>
<path d="M0 0 C0.66 0.33 1.32 0.66 2 1 C1.67 1.99 1.34 2.98 1 4 C0.34 4 -0.32 4 -1 4 C-1 4.66 -1 5.32 -1 6 C-1.99 6.33 -2.98 6.66 -4 7 C-4.66 7.66 -5.32 8.32 -6 9 C-6.66 8.34 -7.32 7.68 -8 7 C-3.25 3 -3.25 3 -1 3 C-0.67 2.01 -0.34 1.02 0 0 Z " fill="#7369C8" transform="translate(331,85)"/>
<path d="M0 0 C0.99 0.33 1.98 0.66 3 1 C2.34 1 1.68 1 1 1 C0.34 2.32 -0.32 3.64 -1 5 C-1.66 5 -2.32 5 -3 5 C-3.33 5.99 -3.66 6.98 -4 8 C-4.33 6.68 -4.66 5.36 -5 4 C-2.6875 1.9375 -2.6875 1.9375 0 0 Z " fill="#7367C3" transform="translate(225,387)"/>
<path d="M0 0 C3.63 0.33 7.26 0.66 11 1 C11 1.33 11 1.66 11 2 C5.06 2.495 5.06 2.495 -1 3 C-0.67 2.01 -0.34 1.02 0 0 Z " fill="#4337B4" transform="translate(390,340)"/>
<path d="M0 0 C0.66 0 1.32 0 2 0 C2.69289369 3.72430357 3.11144596 7.21083746 3 11 C0.60236815 8.60236815 0.65719414 7.66726502 0.375 4.375 C0.30023438 3.55773437 0.22546875 2.74046875 0.1484375 1.8984375 C0.09945312 1.27195312 0.05046875 0.64546875 0 0 Z " fill="#6C62C5" transform="translate(149,281)"/>
<path d="M0 0 C0.33 0 0.66 0 1 0 C1.18451025 9.41002278 1.18451025 9.41002278 0 14 C-0.33 14 -0.66 14 -1 14 C-2.12029814 8.51053913 -1.79217969 5.16569441 0 0 Z " fill="#4033B5" transform="translate(388,218)"/>
<path d="M0 0 C0.99 0 1.98 0 3 0 C3 2.64 3 5.28 3 8 C2.01 8 1.02 8 0 8 C0 5.36 0 2.72 0 0 Z " fill="#4336BD" transform="translate(110,176)"/>
<path d="M0 0 C0 0.66 0 1.32 0 2 C-2.88211302 2.96070434 -4.69850044 3.10581883 -7.6875 3.0625 C-8.89986328 3.04896484 -8.89986328 3.04896484 -10.13671875 3.03515625 C-11.05904297 3.01775391 -11.05904297 3.01775391 -12 3 C-7.74560485 0.81962249 -4.84315381 0 0 0 Z " fill="#6B5CC2" transform="translate(388,122)"/>
<path d="M0 0 C0 0.66 0 1.32 0 2 C-2.52053595 3.26026798 -3.8542098 2.91874445 -6.625 2.5625 C-7.85089844 2.40974609 -7.85089844 2.40974609 -9.1015625 2.25390625 C-9.72804688 2.17011719 -10.35453125 2.08632812 -11 2 C-11 1.67 -11 1.34 -11 1 C-7.26513121 0.4254048 -3.78706732 0 0 0 Z " fill="#6F66BE" transform="translate(421,116)"/>
<path d="M0 0 C0.33 0.66 0.66 1.32 1 2 C0.34 2 -0.32 2 -1 2 C-1 2.66 -1 3.32 -1 4 C-2.375 5.5 -2.375 5.5 -4 7 C-4.66 7.66 -5.32 8.32 -6 9 C-5.8125 6.1875 -5.8125 6.1875 -5 3 C-2.4375 1.125 -2.4375 1.125 0 0 Z " fill="#4C3DBC" transform="translate(227,350)"/>
<path d="M0 0 C0 0.99 0 1.98 0 3 C-3.63 3 -7.26 3 -11 3 C-7.20651739 1.1032587 -4.2270782 0 0 0 Z " fill="#6C62C1" transform="translate(361,347)"/>
<path d="M0 0 C0 3 0 3 -1.1875 4.6875 C-3.55741722 6.40364695 -5.14025666 6.23187108 -8 6 C-6.71034824 4.62437146 -5.37310707 3.29233607 -4 2 C-3.34 2 -2.68 2 -2 2 C-1.34 1.34 -0.68 0.68 0 0 Z " fill="#6E61D2" transform="translate(241,337)"/>
<path d="M0 0 C0.99 0.33 1.98 0.66 3 1 C0.55419324 4.66871014 -2.12424268 6.06212134 -6 8 C-4.55746343 4.63408134 -2.66735273 2.48952921 0 0 Z " fill="#4F44B3" transform="translate(243,333)"/>
<path d="M0 0 C0.33 0.66 0.66 1.32 1 2 C-0.98 4.97 -0.98 4.97 -3 8 C-3.33 7.34 -3.66 6.68 -4 6 C-4.66 5.67 -5.32 5.34 -6 5 C-4.02 3.35 -2.04 1.7 0 0 Z " fill="#6154C4" transform="translate(250,327)"/>
<path d="M0 0 C0.66 0.66 1.32 1.32 2 2 C5.08347826 2.16681109 5.08347826 2.16681109 8 2 C6.8125 3.5625 6.8125 3.5625 5 5 C2.3125 4.6875 2.3125 4.6875 0 4 C0 2.68 0 1.36 0 0 Z " fill="#9389CF" transform="translate(170,435)"/>
<path d="M0 0 C0 3.96 0 7.92 0 12 C-0.33 12 -0.66 12 -1 12 C-1 9.03 -1 6.06 -1 3 C-2.32 2.67 -3.64 2.34 -5 2 C-2 0 -2 0 0 0 Z " fill="#3B2CC1" transform="translate(205,333)"/>
<path d="M0 0 C0.33 0 0.66 0 1 0 C1.33 3.63 1.66 7.26 2 11 C1.34 11 0.68 11 0 11 C-0.84098656 6.98195309 -1.05404945 3.98196457 0 0 Z " fill="#7F75D2" transform="translate(147,256)"/>
<path d="M0 0 C0.33 0.66 0.66 1.32 1 2 C3.3140622 2.73075648 5.64828869 3.40138258 8 4 C7.67 4.66 7.34 5.32 7 6 C3.31245243 5.50168276 1.39509338 4.89932357 -1 2 C-0.67 1.34 -0.34 0.68 0 0 Z " fill="#4F44B5" transform="translate(308,250)"/>
<path d="M0 0 C2.23551759 3.35327639 2.17283528 3.90743657 1.625 7.6875 C1.51414062 8.49574219 1.40328125 9.30398437 1.2890625 10.13671875 C1.19367188 10.75160156 1.09828125 11.36648437 1 12 C0.67 12 0.34 12 0 12 C-0.19401633 10.18818595 -0.38004375 8.37551468 -0.5625 6.5625 C-0.66691406 5.55316406 -0.77132812 4.54382813 -0.87890625 3.50390625 C-0.91886719 2.67761719 -0.95882812 1.85132813 -1 1 C-0.67 0.67 -0.34 0.34 0 0 Z " fill="#4B3ACE" transform="translate(84,137)"/>
<path d="M0 0 C-0.33 0.99 -0.66 1.98 -1 3 C-3.8125 3.625 -3.8125 3.625 -7 4 C-7.99 3.34 -8.98 2.68 -10 2 C-8.7090864 1.66376204 -7.41723903 1.33110751 -6.125 1 C-5.40570313 0.814375 -4.68640625 0.62875 -3.9453125 0.4375 C-2 0 -2 0 0 0 Z " fill="#7167C3" transform="translate(250,121)"/>
<path d="M0 0 C2.23551759 3.35327639 2.17283528 3.90743657 1.625 7.6875 C1.51414062 8.49574219 1.40328125 9.30398437 1.2890625 10.13671875 C1.19367188 10.75160156 1.09828125 11.36648437 1 12 C0.67 12 0.34 12 0 12 C-1.28571429 3.42857143 -1.28571429 3.42857143 0 0 Z " fill="#776CD1" transform="translate(90,181)"/>
<path d="M0 0 C2.64 0.33 5.28 0.66 8 1 C8 1.33 8 1.66 8 2 C3.545 2.495 3.545 2.495 -1 3 C-0.67 2.01 -0.34 1.02 0 0 Z " fill="#726BC7" transform="translate(138,171)"/>
<path d="M0 0 C0.66 0 1.32 0 2 0 C1.67 3.63 1.34 7.26 1 11 C0.67 11 0.34 11 0 11 C-1.125 3.375 -1.125 3.375 0 0 Z " fill="#6E62C0" transform="translate(421,160)"/>
<path d="M0 0 C1.79133978 -0.05391993 3.58313899 -0.09275571 5.375 -0.125 C6.37273437 -0.14820313 7.37046875 -0.17140625 8.3984375 -0.1953125 C11 0 11 0 13 2 C9.70955471 3.0968151 9.16885176 2.90538622 6 2 C4.00211562 1.65421232 2.00240549 1.31856451 0 1 C0 0.67 0 0.34 0 0 Z " fill="#4B3ACE" transform="translate(132,148)"/>
<path d="M0 0 C2.97 0 5.94 0 9 0 C5.55549263 2.29633824 3.06187717 2.54016485 -1 3 C-0.67 2.01 -0.34 1.02 0 0 Z " fill="#4634B5" transform="translate(250,121)"/>
<path d="M0 0 C2.31 0 4.62 0 7 0 C4.28817788 2.60334924 3.10866187 2.99456691 -0.75 3.1875 C-1.8225 3.125625 -2.895 3.06375 -4 3 C-2.68 2.67 -1.36 2.34 0 2 C0 1.34 0 0.68 0 0 Z " fill="#574CBC" transform="translate(376,357)"/>
<path d="M0 0 C2.32590854 3.63423209 2.16265833 6.77088331 2 11 C1.67 10.01 1.34 9.02 1 8 C0.34 8 -0.32 8 -1 8 C-0.67 5.36 -0.34 2.72 0 0 Z " fill="#645EBE" transform="translate(137,180)"/>
<path d="M0 0 C-1.0625 1.5 -1.0625 1.5 -3 3 C-6.6875 3.1875 -6.6875 3.1875 -10 3 C-6.1865669 0.45771127 -4.5252563 -0.11908569 0 0 Z " fill="#4437BB" transform="translate(223,154)"/>
<path d="M0 0 C2.31 0 4.62 0 7 0 C6.01 0.33 5.02 0.66 4 1 C4 1.66 4 2.32 4 3 C2.35 3 0.7 3 -1 3 C-0.67 2.01 -0.34 1.02 0 0 Z " fill="#4337B8" transform="translate(106,142)"/>
</svg>
